solid camera_mount_filement_guide
facet normal -0.0 1.0 -0.0
  outer loop
    vertex -3.0 0.0 7.999999999999998
    vertex 0.0 0.0 1.9999999999999998
    vertex -3.0 0.0 1.9999999999999998
  endloop
endfacet
facet normal -0.0 1.0 -0.0
  outer loop
    vertex 0.0 0.0 1.9999999999999998
    vertex -3.0 0.0 7.999999999999998
    vertex 0.0 0.0 6.999999999999998
  endloop
endfacet
facet normal -0.0 1.0 -0.0
  outer loop
    vertex 0.0 0.0 6.999999999999998
    vertex -3.0 0.0 7.999999999999998
    vertex 20.0 0.0 6.999999999999998
  endloop
endfacet
facet normal -0.0 1.0 -0.0
  outer loop
    vertex 20.0 0.0 6.999999999999998
    vertex 23.000000000000004 0.0 1.9999999999999998
    vertex 20.0 0.0 1.9999999999999998
  endloop
endfacet
facet normal -0.0 1.0 -0.0
  outer loop
    vertex 23.000000000000004 0.0 1.9999999999999998
    vertex 20.0 0.0 6.999999999999998
    vertex 22.999999999999996 0.0 7.999999999999998
  endloop
endfacet
facet normal -0.0 1.0 -0.0
  outer loop
    vertex 22.999999999999996 0.0 7.999999999999998
    vertex 20.0 0.0 6.999999999999998
    vertex -3.0 0.0 7.999999999999998
  endloop
endfacet
facet normal -0.0 1.0 -0.0
  outer loop
    vertex 22.999999999999996 0.0 7.999999999999998
    vertex -3.0 0.0 7.999999999999998
    vertex -1.9999999999999998 0.0 8.999999999999998
  endloop
endfacet
facet normal -0.0 1.0 -0.0
  outer loop
    vertex 22.999999999999996 0.0 7.999999999999998
    vertex -1.9999999999999998 0.0 8.999999999999998
    vertex 21.999999999999996 0.0 8.999999999999998
  endloop
endfacet
facet normal -2.3573961717752377e-32 -1.0 1.8092705308382536e-16
  outer loop
    vertex 22.999999999999996 -9.999999999999998 7.999999999999998
    vertex 20.0 -10.0 1.9999999999999998
    vertex 23.0 -10.0 1.9999999999999998
  endloop
endfacet
facet normal -2.3573961717752377e-32 -1.0 1.8092705308382536e-16
  outer loop
    vertex 20.0 -10.0 1.9999999999999998
    vertex 22.999999999999996 -9.999999999999998 7.999999999999998
    vertex 20.0 -10.0 6.999999999999998
  endloop
endfacet
facet normal -2.3573961717752377e-32 -1.0 1.8092705308382536e-16
  outer loop
    vertex 20.0 -10.0 6.999999999999998
    vertex 22.999999999999996 -9.999999999999998 7.999999999999998
    vertex 0.0 -10.0 6.999999999999998
  endloop
endfacet
facet normal -2.3573961717752377e-32 -1.0 1.8092705308382536e-16
  outer loop
    vertex 0.0 -10.0 6.999999999999998
    vertex -3.0 -10.0 1.9999999999999998
    vertex 0.0 -10.0 1.9999999999999998
  endloop
endfacet
facet normal -2.3573961717752377e-32 -1.0 1.8092705308382536e-16
  outer loop
    vertex -3.0 -10.0 1.9999999999999998
    vertex 0.0 -10.0 6.999999999999998
    vertex -3.0 -9.999999999999998 7.999999999999998
  endloop
endfacet
facet normal -2.3573961717752377e-32 -1.0 1.8092705308382536e-16
  outer loop
    vertex -3.0 -9.999999999999998 7.999999999999998
    vertex 0.0 -10.0 6.999999999999998
    vertex 22.999999999999996 -9.999999999999998 7.999999999999998
  endloop
endfacet
facet normal -2.3573961717752377e-32 -1.0 1.8092705308382536e-16
  outer loop
    vertex -3.0 -9.999999999999998 7.999999999999998
    vertex 22.999999999999996 -9.999999999999998 7.999999999999998
    vertex 21.999999999999996 -9.999999999999998 8.999999999999998
  endloop
endfacet
facet normal -2.3573961717752377e-32 -1.0 1.8092705308382536e-16
  outer loop
    vertex -3.0 -9.999999999999998 7.999999999999998
    vertex 21.999999999999996 -9.999999999999998 8.999999999999998
    vertex -1.9999999999999998 -9.999999999999998 8.999999999999998
  endloop
endfacet
facet normal -1.0 0.0 0.0
  outer loop
    vertex 20.0 0.0 6.999999999999998
    vertex 20.0 -10.0 1.9999999999999998
    vertex 20.0 -10.0 6.999999999999998
  endloop
endfacet
facet normal -1.0 0.0 0.0
  outer loop
    vertex 20.0 -10.0 1.9999999999999998
    vertex 20.0 0.0 6.999999999999998
    vertex 20.0 0.0 1.9999999999999998
  endloop
endfacet
facet normal 1.0 0.0 -0.0
  outer loop
    vertex 0.0 0.0 1.9999999999999998
    vertex 0.0 -10.0 6.999999999999998
    vertex 0.0 -10.0 1.9999999999999998
  endloop
endfacet
facet normal 1.0 0.0 -0.0
  outer loop
    vertex 0.0 -10.0 6.999999999999998
    vertex 0.0 0.0 1.9999999999999998
    vertex 0.0 0.0 6.999999999999998
  endloop
endfacet
facet normal -0.0 -0.0 1.0
  outer loop
    vertex 21.999999999999996 -9.999999999999998 8.999999999999998
    vertex -1.9999999999999998 0.0 8.999999999999998
    vertex -1.9999999999999998 -9.999999999999998 8.999999999999998
  endloop
endfacet
facet normal -0.0 -0.0 1.0
  outer loop
    vertex -1.9999999999999998 0.0 8.999999999999998
    vertex 21.999999999999996 -9.999999999999998 8.999999999999998
    vertex 21.999999999999996 0.0 8.999999999999998
  endloop
endfacet
facet normal -0.0 -0.0 1.0
  outer loop
    vertex 23.0 -10.0 1.9999999999999998
    vertex 20.0 0.0 1.9999999999999998
    vertex 20.0 -10.0 1.9999999999999998
  endloop
endfacet
facet normal -0.0 -0.0 1.0
  outer loop
    vertex 20.0 0.0 1.9999999999999998
    vertex 23.0 -10.0 1.9999999999999998
    vertex 23.000000000000004 0.0 1.9999999999999998
  endloop
endfacet
facet normal 1.0 -1.1980249762458388e-16 7.049916206369743e-16
  outer loop
    vertex 25.000000000000004 3.0 1.4099832412739483e-15
    vertex 25.000000000000004 -12.999999999999998 2.0000000000000013
    vertex 25.000000000000004 -12.999999999999998 1.4099832412739483e-15
  endloop
endfacet
facet normal 1.0 -1.1980249762458388e-16 7.049916206369743e-16
  outer loop
    vertex 25.000000000000004 -12.999999999999998 2.0000000000000013
    vertex 25.000000000000004 3.0 1.4099832412739483e-15
    vertex 25.000000000000004 3.0 2.0000000000000013
  endloop
endfacet
facet normal 0.707106781186547 -0.0 0.707106781186548
  outer loop
    vertex 22.999999999999996 -9.999999999999998 7.999999999999998
    vertex 21.999999999999996 0.0 8.999999999999998
    vertex 21.999999999999996 -9.999999999999998 8.999999999999998
  endloop
endfacet
facet normal 0.707106781186547 -0.0 0.707106781186548
  outer loop
    vertex 21.999999999999996 0.0 8.999999999999998
    vertex 22.999999999999996 -9.999999999999998 7.999999999999998
    vertex 22.999999999999996 0.0 7.999999999999998
  endloop
endfacet
facet normal 1.0 -1.4099832412739488e-16 7.049916206369745e-16
  outer loop
    vertex 23.000000000000004 0.0 1.9999999999999998
    vertex 22.999999999999996 -9.999999999999998 7.999999999999998
    vertex 23.0 -10.0 1.9999999999999998
  endloop
endfacet
facet normal 1.0 -1.4099832412739488e-16 7.049916206369745e-16
  outer loop
    vertex 22.999999999999996 -9.999999999999998 7.999999999999998
    vertex 23.000000000000004 0.0 1.9999999999999998
    vertex 22.999999999999996 0.0 7.999999999999998
  endloop
endfacet
facet normal 0.0 0.0 -1.0
  outer loop
    vertex 20.0 0.0 6.999999999999998
    vertex 0.0 -10.0 6.999999999999998
    vertex 0.0 0.0 6.999999999999998
  endloop
endfacet
facet normal 0.0 0.0 -1.0
  outer loop
    vertex 0.0 -10.0 6.999999999999998
    vertex 20.0 0.0 6.999999999999998
    vertex 20.0 -10.0 6.999999999999998
  endloop
endfacet
facet normal 0.0 1.0 0.0
  outer loop
    vertex -4.999999999999999 3.0 1.9999999999999998
    vertex 25.000000000000004 3.0 1.4099832412739483e-15
    vertex -4.999999999999999 3.0 0.0
  endloop
endfacet
facet normal 0.0 1.0 0.0
  outer loop
    vertex 25.000000000000004 3.0 1.4099832412739483e-15
    vertex -4.999999999999999 3.0 1.9999999999999998
    vertex 25.000000000000004 3.0 2.0000000000000013
  endloop
endfacet
facet normal -0.7071067811865475 -0.0 0.7071067811865477
  outer loop
    vertex -1.9999999999999998 -9.999999999999998 8.999999999999998
    vertex -3.0 0.0 7.999999999999998
    vertex -3.0 -9.999999999999998 7.999999999999998
  endloop
endfacet
facet normal -0.7071067811865475 -0.0 0.7071067811865477
  outer loop
    vertex -3.0 0.0 7.999999999999998
    vertex -1.9999999999999998 -9.999999999999998 8.999999999999998
    vertex -1.9999999999999998 0.0 8.999999999999998
  endloop
endfacet
facet normal 0.0 -1.0 0.0
  outer loop
    vertex 25.000000000000004 -12.999999999999998 1.4099832412739483e-15
    vertex -4.999999999999999 -12.999999999999998 1.9999999999999998
    vertex -4.999999999999999 -12.999999999999998 0.0
  endloop
endfacet
facet normal 0.0 -1.0 0.0
  outer loop
    vertex -4.999999999999999 -12.999999999999998 1.9999999999999998
    vertex 25.000000000000004 -12.999999999999998 1.4099832412739483e-15
    vertex 25.000000000000004 -12.999999999999998 2.0000000000000013
  endloop
endfacet
facet normal 0.0 0.0 -1.0
  outer loop
    vertex 25.000000000000004 3.0 1.4099832412739483e-15
    vertex -4.999999999999999 -12.999999999999998 0.0
    vertex -4.999999999999999 3.0 0.0
  endloop
endfacet
facet normal 0.0 0.0 -1.0
  outer loop
    vertex -4.999999999999999 -12.999999999999998 0.0
    vertex 25.000000000000004 3.0 1.4099832412739483e-15
    vertex 25.000000000000004 -12.999999999999998 1.4099832412739483e-15
  endloop
endfacet
facet normal -0.0 -0.0 1.0
  outer loop
    vertex 0.0 -10.0 1.9999999999999998
    vertex -3.0 0.0 1.9999999999999998
    vertex -3.0 -10.0 1.9999999999999998
  endloop
endfacet
facet normal -0.0 -0.0 1.0
  outer loop
    vertex -3.0 0.0 1.9999999999999998
    vertex 0.0 -10.0 1.9999999999999998
    vertex 0.0 0.0 1.9999999999999998
  endloop
endfacet
facet normal -1.0 0.0 0.0
  outer loop
    vertex -4.999999999999999 3.0 1.9999999999999998
    vertex -4.999999999999999 -12.999999999999998 0.0
    vertex -4.999999999999999 -12.999999999999998 1.9999999999999998
  endloop
endfacet
facet normal -1.0 0.0 0.0
  outer loop
    vertex -4.999999999999999 -12.999999999999998 0.0
    vertex -4.999999999999999 3.0 1.9999999999999998
    vertex -4.999999999999999 3.0 0.0
  endloop
endfacet
facet normal -4.8358163527548586e-17 5.118316887848312e-19 1.0
  outer loop
    vertex -4.999999999999999 -12.999999999999998 1.9999999999999998
    vertex -3.0 -10.0 1.9999999999999998
    vertex -4.999999999999999 3.0 1.9999999999999998
  endloop
endfacet
facet normal -4.8358163527548586e-17 5.118316887848312e-19 1.0
  outer loop
    vertex -3.0 -10.0 1.9999999999999998
    vertex -4.999999999999999 -12.999999999999998 1.9999999999999998
    vertex 25.000000000000004 -12.999999999999998 2.0000000000000013
  endloop
endfacet
facet normal -4.8358163527548586e-17 5.118316887848312e-19 1.0
  outer loop
    vertex -3.0 -10.0 1.9999999999999998
    vertex 25.000000000000004 -12.999999999999998 2.0000000000000013
    vertex 0.0 -10.0 1.9999999999999998
  endloop
endfacet
facet normal -4.8358163527548586e-17 5.118316887848312e-19 1.0
  outer loop
    vertex 0.0 -10.0 1.9999999999999998
    vertex 25.000000000000004 -12.999999999999998 2.0000000000000013
    vertex 0.0 0.0 1.9999999999999998
  endloop
endfacet
facet normal -4.8358163527548586e-17 5.118316887848312e-19 1.0
  outer loop
    vertex 0.0 0.0 1.9999999999999998
    vertex 25.000000000000004 -12.999999999999998 2.0000000000000013
    vertex 20.0 -10.0 1.9999999999999998
  endloop
endfacet
facet normal -4.8358163527548586e-17 5.118316887848312e-19 1.0
  outer loop
    vertex 20.0 -10.0 1.9999999999999998
    vertex 25.000000000000004 -12.999999999999998 2.0000000000000013
    vertex 23.0 -10.0 1.9999999999999998
  endloop
endfacet
facet normal -4.8358163527548586e-17 5.118316887848312e-19 1.0
  outer loop
    vertex 23.0 -10.0 1.9999999999999998
    vertex 25.000000000000004 -12.999999999999998 2.0000000000000013
    vertex 23.000000000000004 0.0 1.9999999999999998
  endloop
endfacet
facet normal -4.8358163527548586e-17 5.118316887848312e-19 1.0
  outer loop
    vertex -4.999999999999999 3.0 1.9999999999999998
    vertex -3.0 0.0 1.9999999999999998
    vertex 25.000000000000004 3.0 2.0000000000000013
  endloop
endfacet
facet normal -4.8358163527548586e-17 5.118316887848312e-19 1.0
  outer loop
    vertex -3.0 0.0 1.9999999999999998
    vertex -4.999999999999999 3.0 1.9999999999999998
    vertex -3.0 -10.0 1.9999999999999998
  endloop
endfacet
facet normal -4.8358163527548586e-17 5.118316887848312e-19 1.0
  outer loop
    vertex 25.000000000000004 3.0 2.0000000000000013
    vertex -3.0 0.0 1.9999999999999998
    vertex 0.0 0.0 1.9999999999999998
  endloop
endfacet
facet normal -4.8358163527548586e-17 5.118316887848312e-19 1.0
  outer loop
    vertex 25.000000000000004 3.0 2.0000000000000013
    vertex 0.0 0.0 1.9999999999999998
    vertex 20.0 0.0 1.9999999999999998
  endloop
endfacet
facet normal -4.8358163527548586e-17 5.118316887848312e-19 1.0
  outer loop
    vertex 20.0 0.0 1.9999999999999998
    vertex 0.0 0.0 1.9999999999999998
    vertex 20.0 -10.0 1.9999999999999998
  endloop
endfacet
facet normal -4.8358163527548586e-17 5.118316887848312e-19 1.0
  outer loop
    vertex 25.000000000000004 3.0 2.0000000000000013
    vertex 20.0 0.0 1.9999999999999998
    vertex 23.000000000000004 0.0 1.9999999999999998
  endloop
endfacet
facet normal -4.8358163527548586e-17 5.118316887848312e-19 1.0
  outer loop
    vertex 25.000000000000004 3.0 2.0000000000000013
    vertex 23.000000000000004 0.0 1.9999999999999998
    vertex 25.000000000000004 -12.999999999999998 2.0000000000000013
  endloop
endfacet
facet normal -1.0 0.0 0.0
  outer loop
    vertex -3.0 -9.999999999999998 7.999999999999998
    vertex -3.0 0.0 1.9999999999999998
    vertex -3.0 -10.0 1.9999999999999998
  endloop
endfacet
facet normal -1.0 0.0 0.0
  outer loop
    vertex -3.0 0.0 1.9999999999999998
    vertex -3.0 -9.999999999999998 7.999999999999998
    vertex -3.0 0.0 7.999999999999998
  endloop
endfacet
endsolid camera_mount_filement_guide
