solid case
facet normal -0.7302546825505265 0.0 -0.6831750131650233
  outer loop
    vertex -191.725 103.2002691845848 55.0
    vertex -168.72499999999997 57.20026918458479 30.414999999999992
    vertex -191.725 57.20026918458479 55.0
  endloop
endfacet
facet normal -0.7302546825505265 0.0 -0.6831750131650233
  outer loop
    vertex -168.72499999999997 57.20026918458479 30.414999999999992
    vertex -191.725 103.2002691845848 55.0
    vertex -168.72499999999997 103.2002691845848 30.414999999999992
  endloop
endfacet
facet normal 6.212664814602947e-32 -2.8199664825479026e-15 -1.0
  outer loop
    vertex -189.72500000000002 105.2002691845848 28.415
    vertex -191.725 103.2002691845848 28.415000000000006
    vertex -191.725 105.2002691845848 28.415
  endloop
endfacet
facet normal 6.212664814602947e-32 -2.8199664825479026e-15 -1.0
  outer loop
    vertex -191.725 103.2002691845848 28.415000000000006
    vertex -189.72500000000002 105.2002691845848 28.415
    vertex -189.725 103.2002691845848 28.415000000000006
  endloop
endfacet
facet normal 0.0 1.0 0.0
  outer loop
    vertex -191.725 57.20026918458479 55.0
    vertex -189.725 57.20026918458479 28.415000000000006
    vertex -191.725 57.20026918458479 28.415000000000006
  endloop
endfacet
facet normal 0.0 1.0 0.0
  outer loop
    vertex -189.725 57.20026918458479 28.415000000000006
    vertex -191.725 57.20026918458479 55.0
    vertex -168.72499999999997 57.20026918458479 30.414999999999992
  endloop
endfacet
facet normal 0.0 1.0 0.0
  outer loop
    vertex -189.725 57.20026918458479 27.41440099384194
    vertex -168.72499999999997 57.20026918458479 30.414999999999992
    vertex -168.72499999999997 57.20026918458479 27.414400993841934
  endloop
endfacet
facet normal 0.0 1.0 0.0
  outer loop
    vertex -168.72499999999997 57.20026918458479 30.414999999999992
    vertex -189.725 57.20026918458479 27.41440099384194
    vertex -189.725 57.20026918458479 28.415000000000006
  endloop
endfacet
facet normal -1.0 0.0 1.1618142805544947e-16
  outer loop
    vertex -168.72499999999997 103.2002691845848 30.414999999999992
    vertex -168.72499999999997 57.20026918458479 27.414400993841934
    vertex -168.72499999999997 57.20026918458479 30.414999999999992
  endloop
endfacet
facet normal -1.0 0.0 1.1618142805544947e-16
  outer loop
    vertex -168.72499999999997 57.20026918458479 27.414400993841934
    vertex -168.72499999999997 103.2002691845848 30.414999999999992
    vertex -168.72499999999997 103.2002691845848 27.414400993841934
  endloop
endfacet
facet normal 0.0 -1.0 0.0
  outer loop
    vertex -168.72499999999997 103.2002691845848 30.414999999999992
    vertex -189.725 103.2002691845848 27.41440099384194
    vertex -168.72499999999997 103.2002691845848 27.414400993841934
  endloop
endfacet
facet normal 0.0 -1.0 0.0
  outer loop
    vertex -189.725 103.2002691845848 27.41440099384194
    vertex -168.72499999999997 103.2002691845848 30.414999999999992
    vertex -189.725 103.2002691845848 28.415000000000006
  endloop
endfacet
facet normal 0.0 -1.0 0.0
  outer loop
    vertex -189.725 103.2002691845848 28.415000000000006
    vertex -168.72499999999997 103.2002691845848 30.414999999999992
    vertex -191.725 103.2002691845848 28.415000000000006
  endloop
endfacet
facet normal 0.0 -1.0 0.0
  outer loop
    vertex -191.725 103.2002691845848 28.415000000000006
    vertex -168.72499999999997 103.2002691845848 30.414999999999992
    vertex -191.725 103.2002691845848 55.0
  endloop
endfacet
facet normal 1.0 0.0 -1.161814280554495e-16
  outer loop
    vertex -166.725 105.2002691845848 27.414400993841934
    vertex -166.725 55.20026918458479 30.414999999999992
    vertex -166.725 55.20026918458479 27.414400993841934
  endloop
endfacet
facet normal 1.0 0.0 -1.161814280554495e-16
  outer loop
    vertex -166.725 55.20026918458479 30.414999999999992
    vertex -166.725 105.2002691845848 27.414400993841934
    vertex -166.725 105.2002691845848 30.414999999999992
  endloop
endfacet
facet normal -1.0 0.0 0.0
  outer loop
    vertex -205.72500000000014 105.2002691845848 57.0
    vertex -205.72500000000014 55.20026918458479 54.0
    vertex -205.72500000000014 55.20026918458479 57.0
  endloop
endfacet
facet normal -1.0 0.0 0.0
  outer loop
    vertex -205.72500000000014 55.20026918458479 54.0
    vertex -205.72500000000014 105.2002691845848 57.0
    vertex -205.72500000000014 105.2002691845848 54.0
  endloop
endfacet
facet normal 0.0 0.0 1.0
  outer loop
    vertex -193.72499999999997 55.20026918458479 57.0
    vertex -205.72500000000014 105.2002691845848 57.0
    vertex -205.72500000000014 55.20026918458479 57.0
  endloop
endfacet
facet normal 0.0 0.0 1.0
  outer loop
    vertex -205.72500000000014 105.2002691845848 57.0
    vertex -193.72499999999997 55.20026918458479 57.0
    vertex -193.725 105.2002691845848 57.0
  endloop
endfacet
facet normal 0.0 0.0 1.0
  outer loop
    vertex -193.725 105.2002691845848 57.0
    vertex -193.72499999999997 55.20026918458479 57.0
    vertex -191.725 105.2002691845848 57.0
  endloop
endfacet
facet normal 0.0 0.0 1.0
  outer loop
    vertex -191.725 105.2002691845848 57.0
    vertex -193.72499999999997 55.20026918458479 57.0
    vertex -191.725 55.20026918458479 57.0
  endloop
endfacet
facet normal 0.0 0.0 -1.0
  outer loop
    vertex -189.725 107.20026918458478 30.415000000000006
    vertex -193.725 105.2002691845848 30.415000000000006
    vertex -193.725 107.20026918458478 30.415000000000006
  endloop
endfacet
facet normal 0.0 0.0 -1.0
  outer loop
    vertex -193.725 105.2002691845848 30.415000000000006
    vertex -189.725 107.20026918458478 30.415000000000006
    vertex -191.725 105.2002691845848 30.415000000000006
  endloop
endfacet
facet normal 0.0 0.0 -1.0
  outer loop
    vertex -191.725 105.2002691845848 30.415000000000006
    vertex -189.725 107.20026918458478 30.415000000000006
    vertex -187.725 105.2002691845848 30.415000000000006
  endloop
endfacet
facet normal -1.0 9.88621192094211e-16 7.483412795767687e-16
  outer loop
    vertex -191.725 105.2002691845848 55.0
    vertex -191.725 103.2002691845848 28.415000000000006
    vertex -191.725 103.2002691845848 55.0
  endloop
endfacet
facet normal -1.0 9.88621192094211e-16 7.483412795767687e-16
  outer loop
    vertex -191.725 103.2002691845848 28.415000000000006
    vertex -191.725 105.2002691845848 55.0
    vertex -191.725 105.2002691845848 28.415
  endloop
endfacet
facet normal -1.0 9.88621192094211e-16 7.483412795767687e-16
  outer loop
    vertex -191.725 105.2002691845848 28.415
    vertex -191.725 105.2002691845848 55.0
    vertex -191.725 105.2002691845848 30.415000000000006
  endloop
endfacet
facet normal 0.0 0.0 -1.0
  outer loop
    vertex -191.725 55.20026918458479 30.415000000000006
    vertex -193.725 53.2002691845848 30.415000000000006
    vertex -193.725 55.20026918458479 30.415000000000006
  endloop
endfacet
facet normal 0.0 0.0 -1.0
  outer loop
    vertex -193.725 53.2002691845848 30.415000000000006
    vertex -191.725 55.20026918458479 30.415000000000006
    vertex -189.725 53.2002691845848 30.415000000000006
  endloop
endfacet
facet normal 0.0 0.0 -1.0
  outer loop
    vertex -189.725 53.2002691845848 30.415000000000006
    vertex -191.725 55.20026918458479 30.415000000000006
    vertex -187.725 55.20026918458479 30.415000000000006
  endloop
endfacet
facet normal 0.0 0.0 -1.0
  outer loop
    vertex -203.72499999999997 105.2002691845848 54.0
    vertex -205.72500000000014 55.20026918458479 54.0
    vertex -205.72500000000014 105.2002691845848 54.0
  endloop
endfacet
facet normal 0.0 0.0 -1.0
  outer loop
    vertex -205.72500000000014 55.20026918458479 54.0
    vertex -203.72499999999997 105.2002691845848 54.0
    vertex -203.72499999999997 55.20026918458479 54.0
  endloop
endfacet
facet normal 1.0 0.0 0.0
  outer loop
    vertex -203.72499999999997 105.2002691845848 54.0
    vertex -203.72499999999997 55.20026918458479 55.0
    vertex -203.72499999999997 55.20026918458479 54.0
  endloop
endfacet
facet normal 1.0 0.0 0.0
  outer loop
    vertex -203.72499999999997 55.20026918458479 55.0
    vertex -203.72499999999997 105.2002691845848 54.0
    vertex -203.72499999999997 105.2002691845848 55.0
  endloop
endfacet
facet normal 0.0 -1.0 0.0
  outer loop
    vertex -193.725 105.2002691845848 57.0
    vertex -203.72499999999997 105.2002691845848 55.0
    vertex -193.725 105.2002691845848 55.0
  endloop
endfacet
facet normal 0.0 -1.0 0.0
  outer loop
    vertex -203.72499999999997 105.2002691845848 55.0
    vertex -205.72500000000014 105.2002691845848 54.0
    vertex -203.72499999999997 105.2002691845848 54.0
  endloop
endfacet
facet normal 0.0 -1.0 0.0
  outer loop
    vertex -205.72500000000014 105.2002691845848 54.0
    vertex -203.72499999999997 105.2002691845848 55.0
    vertex -205.72500000000014 105.2002691845848 57.0
  endloop
endfacet
facet normal 0.0 -1.0 0.0
  outer loop
    vertex -205.72500000000014 105.2002691845848 57.0
    vertex -203.72499999999997 105.2002691845848 55.0
    vertex -193.725 105.2002691845848 57.0
  endloop
endfacet
facet normal 0.7071067811865476 0.7071067811865476 0.0
  outer loop
    vertex -189.725 107.20026918458478 30.415000000000006
    vertex -187.725 105.2002691845848 52.91000000000001
    vertex -187.725 105.2002691845848 30.415000000000006
  endloop
endfacet
facet normal 0.7071067811865476 0.7071067811865476 0.0
  outer loop
    vertex -187.725 105.2002691845848 52.91000000000001
    vertex -189.725 107.20026918458478 30.415000000000006
    vertex -189.725 107.20026918458478 52.91000000000001
  endloop
endfacet
facet normal -1.0 0.0 0.0
  outer loop
    vertex -193.725 107.20026918458478 52.91000000000001
    vertex -193.725 105.2002691845848 55.0
    vertex -193.725 105.2002691845848 57.0
  endloop
endfacet
facet normal -1.0 0.0 0.0
  outer loop
    vertex -193.725 105.2002691845848 55.0
    vertex -193.725 107.20026918458478 52.91000000000001
    vertex -193.725 105.2002691845848 30.415000000000006
  endloop
endfacet
facet normal -1.0 0.0 0.0
  outer loop
    vertex -193.725 105.2002691845848 30.415000000000006
    vertex -193.725 107.20026918458478 52.91000000000001
    vertex -193.725 107.20026918458478 30.415000000000006
  endloop
endfacet
facet normal 0.0 -1.0 0.0
  outer loop
    vertex -187.725 105.2002691845848 52.91000000000001
    vertex -191.725 105.2002691845848 30.415000000000006
    vertex -187.725 105.2002691845848 30.415000000000006
  endloop
endfacet
facet normal 0.0 -1.0 0.0
  outer loop
    vertex -191.725 105.2002691845848 30.415000000000006
    vertex -187.725 105.2002691845848 52.91000000000001
    vertex -191.725 105.2002691845848 55.0
  endloop
endfacet
facet normal 0.0 -1.0 0.0
  outer loop
    vertex -191.725 105.2002691845848 55.0
    vertex -187.725 105.2002691845848 52.91000000000001
    vertex -191.725 105.2002691845848 57.0
  endloop
endfacet
facet normal 0.0 -1.0 0.0
  outer loop
    vertex -191.725 105.2002691845848 55.0
    vertex -191.725 105.2002691845848 57.0
    vertex -193.725 105.2002691845848 55.0
  endloop
endfacet
facet normal 0.0 -1.0 0.0
  outer loop
    vertex -193.725 105.2002691845848 55.0
    vertex -191.725 105.2002691845848 57.0
    vertex -193.725 105.2002691845848 57.0
  endloop
endfacet
facet normal 0.0 -1.0 0.0
  outer loop
    vertex -193.72499999999997 55.20026918458479 57.0
    vertex -203.72499999999997 55.20026918458479 55.0
    vertex -193.72499999999997 55.20026918458479 55.0
  endloop
endfacet
facet normal 0.0 -1.0 0.0
  outer loop
    vertex -203.72499999999997 55.20026918458479 55.0
    vertex -205.72500000000014 55.20026918458479 54.0
    vertex -203.72499999999997 55.20026918458479 54.0
  endloop
endfacet
facet normal 0.0 -1.0 0.0
  outer loop
    vertex -205.72500000000014 55.20026918458479 54.0
    vertex -203.72499999999997 55.20026918458479 55.0
    vertex -205.72500000000014 55.20026918458479 57.0
  endloop
endfacet
facet normal 0.0 -1.0 0.0
  outer loop
    vertex -205.72500000000014 55.20026918458479 57.0
    vertex -203.72499999999997 55.20026918458479 55.0
    vertex -193.72499999999997 55.20026918458479 57.0
  endloop
endfacet
facet normal 0.7071067811865481 -0.707106781186547 -3.7533748354803145e-16
  outer loop
    vertex -189.725 53.2002691845848 30.415000000000006
    vertex -187.725 55.20026918458479 52.91000000000001
    vertex -189.725 53.2002691845848 52.91000000000001
  endloop
endfacet
facet normal 0.7071067811865481 -0.707106781186547 -3.7533748354803145e-16
  outer loop
    vertex -187.725 55.20026918458479 52.91000000000001
    vertex -189.725 53.2002691845848 30.415000000000006
    vertex -187.725 55.20026918458479 30.415000000000006
  endloop
endfacet
facet normal -5.9654838851057825e-33 -1.0 -3.1339925345053315e-17
  outer loop
    vertex -189.725 53.2002691845848 52.91000000000001
    vertex -193.725 53.2002691845848 30.415000000000006
    vertex -189.725 53.2002691845848 30.415000000000006
  endloop
endfacet
facet normal -5.9654838851057825e-33 -1.0 -3.1339925345053315e-17
  outer loop
    vertex -193.725 53.2002691845848 30.415000000000006
    vertex -189.725 53.2002691845848 52.91000000000001
    vertex -193.72499999999997 53.2002691845848 52.91000000000001
  endloop
endfacet
facet normal 0.0 -0.8983458387070101 0.43928891868313574
  outer loop
    vertex -191.725 55.20026918458479 57.0
    vertex -193.72499999999997 53.2002691845848 52.91000000000001
    vertex -189.725 53.2002691845848 52.91000000000001
  endloop
endfacet
facet normal 0.0 -0.8983458387070101 0.43928891868313574
  outer loop
    vertex -193.72499999999997 53.2002691845848 52.91000000000001
    vertex -191.725 55.20026918458479 57.0
    vertex -193.72499999999997 55.20026918458479 57.0
  endloop
endfacet
facet normal 0.0 1.0 0.0
  outer loop
    vertex -193.725 107.20026918458478 52.91000000000001
    vertex -189.725 107.20026918458478 30.415000000000006
    vertex -193.725 107.20026918458478 30.415000000000006
  endloop
endfacet
facet normal 0.0 1.0 0.0
  outer loop
    vertex -189.725 107.20026918458478 30.415000000000006
    vertex -193.725 107.20026918458478 52.91000000000001
    vertex -189.725 107.20026918458478 52.91000000000001
  endloop
endfacet
facet normal 0.0 0.8983458387070105 0.4392889186831352
  outer loop
    vertex -193.725 105.2002691845848 57.0
    vertex -189.725 107.20026918458478 52.91000000000001
    vertex -193.725 107.20026918458478 52.91000000000001
  endloop
endfacet
facet normal 0.0 0.8983458387070105 0.4392889186831352
  outer loop
    vertex -189.725 107.20026918458478 52.91000000000001
    vertex -193.725 105.2002691845848 57.0
    vertex -191.725 105.2002691845848 57.0
  endloop
endfacet
facet normal 0.0 -1.0 0.0
  outer loop
    vertex -191.725 105.2002691845848 55.0
    vertex -193.725 105.2002691845848 30.415000000000006
    vertex -191.725 105.2002691845848 30.415000000000006
  endloop
endfacet
facet normal 0.0 -1.0 0.0
  outer loop
    vertex -193.725 105.2002691845848 30.415000000000006
    vertex -191.725 105.2002691845848 55.0
    vertex -193.725 105.2002691845848 55.0
  endloop
endfacet
facet normal 6.432319620341149e-19 -1.0 -3.145388567403822e-17
  outer loop
    vertex -187.725 55.20026918458479 52.91000000000001
    vertex -191.725 55.20026918458479 30.415000000000006
    vertex -187.725 55.20026918458479 30.415000000000006
  endloop
endfacet
facet normal 6.432319620341149e-19 -1.0 -3.145388567403822e-17
  outer loop
    vertex -191.725 55.20026918458479 30.415000000000006
    vertex -187.725 55.20026918458479 52.91000000000001
    vertex -191.725 55.20026918458479 52.7464
  endloop
endfacet
facet normal -1.0 -1.4340198289935573e-15 7.582519785364721e-16
  outer loop
    vertex -191.725 57.20026918458479 55.0
    vertex -191.725 55.20026918458479 52.7464
    vertex -191.725 55.20026918458479 55.0
  endloop
endfacet
facet normal -1.0 -1.4340198289935573e-15 7.582519785364721e-16
  outer loop
    vertex -191.725 55.20026918458479 52.7464
    vertex -191.725 57.20026918458479 55.0
    vertex -191.725 55.20026918458479 30.415000000000006
  endloop
endfacet
facet normal -1.0 -1.4340198289935573e-15 7.582519785364721e-16
  outer loop
    vertex -191.725 55.20026918458479 30.415000000000006
    vertex -191.725 57.20026918458479 55.0
    vertex -191.725 55.20026918458479 28.415
  endloop
endfacet
facet normal -1.0 -1.4340198289935573e-15 7.582519785364721e-16
  outer loop
    vertex -191.725 55.20026918458479 28.415
    vertex -191.725 57.20026918458479 55.0
    vertex -191.725 57.20026918458479 28.415000000000006
  endloop
endfacet
facet normal 1.0780307650942117e-17 -1.0 -4.430608293673635e-17
  outer loop
    vertex -187.725 55.20026918458479 52.91000000000001
    vertex -187.725 55.20026918458479 30.415000000000006
    vertex -165.725 55.20026918458479 30.415000000000006
  endloop
endfacet
facet normal 1.0780307650942117e-17 -1.0 -4.430608293673635e-17
  outer loop
    vertex -166.725 55.20026918458479 30.414999999999992
    vertex -189.72500000000002 55.20026918458479 27.414400993841934
    vertex -166.725 55.20026918458479 27.414400993841934
  endloop
endfacet
facet normal 1.0780307650942117e-17 -1.0 -4.430608293673635e-17
  outer loop
    vertex -189.72500000000002 55.20026918458479 27.414400993841934
    vertex -166.725 55.20026918458479 30.414999999999992
    vertex -189.72500000000002 55.20026918458479 28.415
  endloop
endfacet
facet normal 1.0780307650942117e-17 -1.0 -4.430608293673635e-17
  outer loop
    vertex -189.72500000000002 55.20026918458479 28.415
    vertex -166.725 55.20026918458479 30.414999999999992
    vertex -191.725 55.20026918458479 28.415
  endloop
endfacet
facet normal 1.0780307650942117e-17 -1.0 -4.430608293673635e-17
  outer loop
    vertex -191.725 55.20026918458479 28.415
    vertex -166.725 55.20026918458479 30.414999999999992
    vertex -191.725 55.20026918458479 30.415000000000006
  endloop
endfacet
facet normal 1.0780307650942117e-17 -1.0 -4.430608293673635e-17
  outer loop
    vertex -191.725 55.20026918458479 30.415000000000006
    vertex -166.725 55.20026918458479 30.414999999999992
    vertex -165.725 55.20026918458479 30.415000000000006
  endloop
endfacet
facet normal 1.0780307650942117e-17 -1.0 -4.430608293673635e-17
  outer loop
    vertex -191.725 55.20026918458479 30.415000000000006
    vertex -165.725 55.20026918458479 30.415000000000006
    vertex -187.725 55.20026918458479 30.415000000000006
  endloop
endfacet
facet normal 1.0780307650942117e-17 -1.0 -4.430608293673635e-17
  outer loop
    vertex -187.725 55.20026918458479 52.91000000000001
    vertex -191.725 55.20026918458479 55.0
    vertex -191.725 55.20026918458479 52.7464
  endloop
endfacet
facet normal 1.0780307650942117e-17 -1.0 -4.430608293673635e-17
  outer loop
    vertex -191.725 55.20026918458479 55.0
    vertex -187.725 55.20026918458479 52.91000000000001
    vertex -191.725 55.20026918458479 57.0
  endloop
endfacet
facet normal 1.0780307650942117e-17 -1.0 -4.430608293673635e-17
  outer loop
    vertex -191.725 55.20026918458479 55.0
    vertex -191.725 55.20026918458479 57.0
    vertex -193.72499999999997 55.20026918458479 55.0
  endloop
endfacet
facet normal 1.0780307650942117e-17 -1.0 -4.430608293673635e-17
  outer loop
    vertex -193.72499999999997 55.20026918458479 55.0
    vertex -191.725 55.20026918458479 57.0
    vertex -193.72499999999997 55.20026918458479 57.0
  endloop
endfacet
facet normal 7.91024500836334e-33 1.0 2.98465049456344e-17
  outer loop
    vertex -193.72499999999997 55.20026918458479 55.0
    vertex -191.725 55.20026918458479 30.415000000000006
    vertex -193.725 55.20026918458479 30.415000000000006
  endloop
endfacet
facet normal 7.91024500836334e-33 1.0 2.98465049456344e-17
  outer loop
    vertex -191.725 55.20026918458479 30.415000000000006
    vertex -193.72499999999997 55.20026918458479 55.0
    vertex -191.725 55.20026918458479 52.7464
  endloop
endfacet
facet normal 7.91024500836334e-33 1.0 2.98465049456344e-17
  outer loop
    vertex -191.725 55.20026918458479 52.7464
    vertex -193.72499999999997 55.20026918458479 55.0
    vertex -191.725 55.20026918458479 55.0
  endloop
endfacet
facet normal 0.0 0.0 -1.0
  outer loop
    vertex -193.725 105.2002691845848 55.0
    vertex -203.72499999999997 55.20026918458479 55.0
    vertex -203.72499999999997 105.2002691845848 55.0
  endloop
endfacet
facet normal 0.0 0.0 -1.0
  outer loop
    vertex -203.72499999999997 55.20026918458479 55.0
    vertex -193.725 105.2002691845848 55.0
    vertex -193.72499999999997 55.20026918458479 55.0
  endloop
endfacet
facet normal 0.0 0.0 -1.0
  outer loop
    vertex -193.72499999999997 55.20026918458479 55.0
    vertex -193.725 105.2002691845848 55.0
    vertex -191.725 105.2002691845848 55.0
  endloop
endfacet
facet normal 0.0 0.0 -1.0
  outer loop
    vertex -193.72499999999997 55.20026918458479 55.0
    vertex -191.725 105.2002691845848 55.0
    vertex -191.725 55.20026918458479 55.0
  endloop
endfacet
facet normal 0.0 0.0 -1.0
  outer loop
    vertex -191.725 55.20026918458479 55.0
    vertex -191.725 105.2002691845848 55.0
    vertex -191.725 103.2002691845848 55.0
  endloop
endfacet
facet normal 0.0 0.0 -1.0
  outer loop
    vertex -191.725 55.20026918458479 55.0
    vertex -191.725 103.2002691845848 55.0
    vertex -191.725 57.20026918458479 55.0
  endloop
endfacet
facet normal 6.212664814602947e-32 2.8199664825479026e-15 -1.0
  outer loop
    vertex -189.725 57.20026918458479 28.415000000000006
    vertex -191.725 55.20026918458479 28.415
    vertex -191.725 57.20026918458479 28.415000000000006
  endloop
endfacet
facet normal 6.212664814602947e-32 2.8199664825479026e-15 -1.0
  outer loop
    vertex -191.725 55.20026918458479 28.415
    vertex -189.725 57.20026918458479 28.415000000000006
    vertex -189.72500000000002 55.20026918458479 28.415
  endloop
endfacet
facet normal -1.2765280373673592e-16 0.0 -1.0
  outer loop
    vertex -166.725 105.2002691845848 27.414400993841934
    vertex -189.725 103.2002691845848 27.41440099384194
    vertex -189.72500000000002 105.2002691845848 27.414400993841934
  endloop
endfacet
facet normal -1.2765280373673592e-16 0.0 -1.0
  outer loop
    vertex -189.725 103.2002691845848 27.41440099384194
    vertex -166.725 105.2002691845848 27.414400993841934
    vertex -168.72499999999997 103.2002691845848 27.414400993841934
  endloop
endfacet
facet normal -1.2765280373673592e-16 0.0 -1.0
  outer loop
    vertex -168.72499999999997 103.2002691845848 27.414400993841934
    vertex -166.725 105.2002691845848 27.414400993841934
    vertex -168.72499999999997 57.20026918458479 27.414400993841934
  endloop
endfacet
facet normal -1.2765280373673592e-16 0.0 -1.0
  outer loop
    vertex -189.725 57.20026918458479 27.41440099384194
    vertex -166.725 55.20026918458479 27.414400993841934
    vertex -189.72500000000002 55.20026918458479 27.414400993841934
  endloop
endfacet
facet normal -1.2765280373673592e-16 0.0 -1.0
  outer loop
    vertex -166.725 55.20026918458479 27.414400993841934
    vertex -189.725 57.20026918458479 27.41440099384194
    vertex -168.72499999999997 57.20026918458479 27.414400993841934
  endloop
endfacet
facet normal -1.2765280373673592e-16 0.0 -1.0
  outer loop
    vertex -166.725 55.20026918458479 27.414400993841934
    vertex -168.72499999999997 57.20026918458479 27.414400993841934
    vertex -166.725 105.2002691845848 27.414400993841934
  endloop
endfacet
facet normal -1.0 -5.639932965095804e-15 1.2765280373673592e-16
  outer loop
    vertex -189.72500000000002 105.2002691845848 28.415
    vertex -189.725 103.2002691845848 27.41440099384194
    vertex -189.725 103.2002691845848 28.415000000000006
  endloop
endfacet
facet normal -1.0 -5.639932965095804e-15 1.2765280373673592e-16
  outer loop
    vertex -189.725 103.2002691845848 27.41440099384194
    vertex -189.72500000000002 105.2002691845848 28.415
    vertex -189.72500000000002 105.2002691845848 27.414400993841934
  endloop
endfacet
facet normal -1.0 5.639932965095804e-15 1.2765280373673592e-16
  outer loop
    vertex -189.725 57.20026918458479 28.415000000000006
    vertex -189.72500000000002 55.20026918458479 27.414400993841934
    vertex -189.72500000000002 55.20026918458479 28.415
  endloop
endfacet
facet normal -1.0 5.639932965095804e-15 1.2765280373673592e-16
  outer loop
    vertex -189.72500000000002 55.20026918458479 27.414400993841934
    vertex -189.725 57.20026918458479 28.415000000000006
    vertex -189.725 57.20026918458479 27.41440099384194
  endloop
endfacet
facet normal -1.6919798895287415e-14 0.0 1.0
  outer loop
    vertex -165.725 55.20026918458479 30.415000000000006
    vertex -166.725 105.2002691845848 30.414999999999992
    vertex -166.725 55.20026918458479 30.414999999999992
  endloop
endfacet
facet normal -1.6919798895287415e-14 0.0 1.0
  outer loop
    vertex -166.725 105.2002691845848 30.414999999999992
    vertex -165.725 55.20026918458479 30.415000000000006
    vertex -165.725 105.2002691845848 30.415000000000006
  endloop
endfacet
facet normal -0.7149289956516152 -5.462221381390437e-17 -0.6991970617619707
  outer loop
    vertex -191.725 105.2002691845848 57.0
    vertex -187.725 55.20026918458479 52.91000000000001
    vertex -191.725 55.20026918458479 57.0
  endloop
endfacet
facet normal -0.7149289956516152 -5.462221381390437e-17 -0.6991970617619707
  outer loop
    vertex -187.725 55.20026918458479 52.91000000000001
    vertex -191.725 105.2002691845848 57.0
    vertex -165.725 55.20026918458479 30.415000000000006
  endloop
endfacet
facet normal -0.7149289956516152 -5.462221381390437e-17 -0.6991970617619707
  outer loop
    vertex -165.725 55.20026918458479 30.415000000000006
    vertex -191.725 105.2002691845848 57.0
    vertex -165.725 105.2002691845848 30.415000000000006
  endloop
endfacet
facet normal -0.7149289956516152 -5.462221381390437e-17 -0.6991970617619707
  outer loop
    vertex -165.725 105.2002691845848 30.415000000000006
    vertex -191.725 105.2002691845848 57.0
    vertex -187.725 105.2002691845848 52.91000000000001
  endloop
endfacet
facet normal 0.0 -1.0 0.0
  outer loop
    vertex -187.725 105.2002691845848 52.91000000000001
    vertex -187.725 105.2002691845848 30.415000000000006
    vertex -165.725 105.2002691845848 30.415000000000006
  endloop
endfacet
facet normal 0.0 -1.0 0.0
  outer loop
    vertex -166.725 105.2002691845848 30.414999999999992
    vertex -189.72500000000002 105.2002691845848 27.414400993841934
    vertex -166.725 105.2002691845848 27.414400993841934
  endloop
endfacet
facet normal 0.0 -1.0 0.0
  outer loop
    vertex -189.72500000000002 105.2002691845848 27.414400993841934
    vertex -166.725 105.2002691845848 30.414999999999992
    vertex -189.72500000000002 105.2002691845848 28.415
  endloop
endfacet
facet normal 0.0 -1.0 0.0
  outer loop
    vertex -189.72500000000002 105.2002691845848 28.415
    vertex -166.725 105.2002691845848 30.414999999999992
    vertex -191.725 105.2002691845848 28.415
  endloop
endfacet
facet normal 0.0 -1.0 0.0
  outer loop
    vertex -191.725 105.2002691845848 28.415
    vertex -166.725 105.2002691845848 30.414999999999992
    vertex -191.725 105.2002691845848 30.415000000000006
  endloop
endfacet
facet normal 0.0 -1.0 0.0
  outer loop
    vertex -191.725 105.2002691845848 30.415000000000006
    vertex -166.725 105.2002691845848 30.414999999999992
    vertex -165.725 105.2002691845848 30.415000000000006
  endloop
endfacet
facet normal 0.0 -1.0 0.0
  outer loop
    vertex -191.725 105.2002691845848 30.415000000000006
    vertex -165.725 105.2002691845848 30.415000000000006
    vertex -187.725 105.2002691845848 30.415000000000006
  endloop
endfacet
facet normal 0.581584650689442 0.5815846506894411 0.5687869444395507
  outer loop
    vertex -189.725 107.20026918458478 52.91000000000001
    vertex -191.725 105.2002691845848 57.0
    vertex -187.725 105.2002691845848 52.91000000000001
  endloop
endfacet
facet normal 0.5815846506894412 -0.5815846506894408 0.5687869444395519
  outer loop
    vertex -191.725 55.20026918458479 57.0
    vertex -189.725 53.2002691845848 52.91000000000001
    vertex -187.725 55.20026918458479 52.91000000000001
  endloop
endfacet
facet normal -1.0 -4.012439945494896e-16 4.617642767116765e-16
  outer loop
    vertex -193.72499999999997 55.20026918458479 57.0
    vertex -193.725 53.2002691845848 30.415000000000006
    vertex -193.72499999999997 53.2002691845848 52.91000000000001
  endloop
endfacet
facet normal -1.0 -4.012439945494896e-16 4.617642767116765e-16
  outer loop
    vertex -193.725 53.2002691845848 30.415000000000006
    vertex -193.72499999999997 55.20026918458479 57.0
    vertex -193.72499999999997 55.20026918458479 55.0
  endloop
endfacet
facet normal -1.0 -4.012439945494896e-16 4.617642767116765e-16
  outer loop
    vertex -193.725 53.2002691845848 30.415000000000006
    vertex -193.72499999999997 55.20026918458479 55.0
    vertex -193.725 55.20026918458479 30.415000000000006
  endloop
endfacet
endsolid case
