solid case
facet normal 0.0 1.0 0.0
  outer loop
    vertex -102.0 108.56250000000001 27.425
    vertex -100.0 108.56250000000001 26.425
    vertex -102.0 108.56250000000001 26.425
  endloop
endfacet
facet normal 0.0 1.0 0.0
  outer loop
    vertex -100.0 108.56250000000001 26.425
    vertex -102.0 108.56250000000001 27.425
    vertex -100.0 108.56250000000001 28.415000000000006
  endloop
endfacet
facet normal 0.0 1.0 0.0
  outer loop
    vertex -100.0 108.56250000000001 28.415000000000006
    vertex -102.0 108.56250000000001 27.425
    vertex -102.0 108.56250000000001 28.415000000000006
  endloop
endfacet
facet normal 0.0 -1.0 0.0
  outer loop
    vertex -100.0 52.99999999999999 28.415000000000006
    vertex -102.0 52.99999999999999 26.425
    vertex -100.0 52.99999999999999 26.425
  endloop
endfacet
facet normal 0.0 -1.0 0.0
  outer loop
    vertex -102.0 52.99999999999999 26.425
    vertex -100.0 52.99999999999999 28.415000000000006
    vertex -102.0 52.99999999999999 27.425
  endloop
endfacet
facet normal 0.0 -1.0 0.0
  outer loop
    vertex -102.0 52.99999999999999 27.425
    vertex -100.0 52.99999999999999 28.415000000000006
    vertex -102.0 52.99999999999999 28.415000000000006
  endloop
endfacet
facet normal 1.0 0.0 0.0
  outer loop
    vertex -102.0 109.56249999999999 27.415000000000006
    vertex -102.0 108.56250000000001 28.415000000000006
    vertex -102.0 108.56250000000001 27.425
  endloop
endfacet
facet normal 1.0 0.0 0.0
  outer loop
    vertex -102.0 108.56250000000001 28.415000000000006
    vertex -102.0 109.56249999999999 27.415000000000006
    vertex -102.0 109.56249999999999 28.415000000000006
  endloop
endfacet
facet normal 0.0 0.0 -1.0
  outer loop
    vertex -100.0 108.56250000000001 26.425
    vertex -102.0 52.99999999999999 26.425
    vertex -102.0 108.56250000000001 26.425
  endloop
endfacet
facet normal 0.0 0.0 -1.0
  outer loop
    vertex -102.0 52.99999999999999 26.425
    vertex -100.0 108.56250000000001 26.425
    vertex -100.0 52.99999999999999 26.425
  endloop
endfacet
facet normal 1.0 0.0 0.0
  outer loop
    vertex -100.0 108.56250000000001 26.425
    vertex -100.0 52.99999999999999 28.415000000000006
    vertex -100.0 52.99999999999999 26.425
  endloop
endfacet
facet normal 1.0 0.0 0.0
  outer loop
    vertex -100.0 52.99999999999999 28.415000000000006
    vertex -100.0 50.0 30.415000000000006
    vertex -100.0 50.0 28.415000000000006
  endloop
endfacet
facet normal 1.0 0.0 0.0
  outer loop
    vertex -100.0 50.0 30.415000000000006
    vertex -100.0 52.99999999999999 28.415000000000006
    vertex -100.0 111.56249999999999 30.415000000000006
  endloop
endfacet
facet normal 1.0 0.0 0.0
  outer loop
    vertex -100.0 111.56249999999999 30.415000000000006
    vertex -100.0 52.99999999999999 28.415000000000006
    vertex -100.0 108.56250000000001 28.415000000000006
  endloop
endfacet
facet normal 1.0 0.0 0.0
  outer loop
    vertex -100.0 108.56250000000001 28.415000000000006
    vertex -100.0 52.99999999999999 28.415000000000006
    vertex -100.0 108.56250000000001 26.425
  endloop
endfacet
facet normal 1.0 0.0 0.0
  outer loop
    vertex -100.0 111.56249999999999 30.415000000000006
    vertex -100.0 108.56250000000001 28.415000000000006
    vertex -100.0 111.56249999999999 28.415000000000006
  endloop
endfacet
facet normal 0.0 1.0 0.0
  outer loop
    vertex -191.725 111.56249999999999 30.415000000000006
    vertex -188.72499999999985 111.56249999999999 28.415000000000006
    vertex -191.725 111.56249999999999 28.415000000000006
  endloop
endfacet
facet normal 0.0 1.0 0.0
  outer loop
    vertex -188.72499999999985 111.56249999999999 28.415000000000006
    vertex -191.725 111.56249999999999 30.415000000000006
    vertex -123.72499999999985 111.56249999999999 28.415000000000006
  endloop
endfacet
facet normal 0.0 1.0 0.0
  outer loop
    vertex -123.72499999999985 111.56249999999999 28.415000000000006
    vertex -191.725 111.56249999999999 30.415000000000006
    vertex -100.0 111.56249999999999 28.415000000000006
  endloop
endfacet
facet normal 0.0 1.0 0.0
  outer loop
    vertex -100.0 111.56249999999999 28.415000000000006
    vertex -191.725 111.56249999999999 30.415000000000006
    vertex -100.0 111.56249999999999 30.415000000000006
  endloop
endfacet
facet normal 0.0 1.0 0.0
  outer loop
    vertex -188.72499999999985 111.56249999999999 28.415000000000006
    vertex -123.72499999999985 111.56249999999999 25.415000000000006
    vertex -188.72499999999985 111.56249999999999 25.415000000000006
  endloop
endfacet
facet normal 0.0 1.0 0.0
  outer loop
    vertex -123.72499999999985 111.56249999999999 25.415000000000006
    vertex -188.72499999999985 111.56249999999999 28.415000000000006
    vertex -123.72499999999985 111.56249999999999 28.415000000000006
  endloop
endfacet
facet normal -1.0 1.0845463503724574e-15 2.8199664825478947e-15
  outer loop
    vertex -191.725 55.20026918458479 30.415000000000006
    vertex -191.725 50.0 28.415000000000006
    vertex -191.725 50.0 30.415000000000006
  endloop
endfacet
facet normal -1.0 1.0845463503724574e-15 2.8199664825478947e-15
  outer loop
    vertex -191.725 50.0 28.415000000000006
    vertex -191.725 55.20026918458479 30.415000000000006
    vertex -191.725 55.20026918458479 28.415000000000006
  endloop
endfacet
facet normal 0.0 -1.0 0.0
  outer loop
    vertex -100.0 50.0 30.415000000000006
    vertex -129.9200000000001 49.999999999999964 28.415000000000006
    vertex -100.0 50.0 28.415000000000006
  endloop
endfacet
facet normal 0.0 -1.0 0.0
  outer loop
    vertex -129.9200000000001 49.999999999999964 28.415000000000006
    vertex -100.0 50.0 30.415000000000006
    vertex -188.79500000000002 50.0 28.415000000000006
  endloop
endfacet
facet normal 0.0 -1.0 0.0
  outer loop
    vertex -188.79500000000002 50.0 28.415000000000006
    vertex -100.0 50.0 30.415000000000006
    vertex -191.725 50.0 28.415000000000006
  endloop
endfacet
facet normal 0.0 -1.0 0.0
  outer loop
    vertex -191.725 50.0 28.415000000000006
    vertex -100.0 50.0 30.415000000000006
    vertex -191.725 50.0 30.415000000000006
  endloop
endfacet
facet normal 0.0 -1.0 0.0
  outer loop
    vertex -129.9200000000001 49.999999999999964 28.415000000000006
    vertex -188.79500000000002 50.0 17.41500000000001
    vertex -129.9200000000001 49.999999999999964 17.41500000000001
  endloop
endfacet
facet normal 0.0 -1.0 0.0
  outer loop
    vertex -188.79500000000002 50.0 17.41500000000001
    vertex -129.9200000000001 49.999999999999964 28.415000000000006
    vertex -188.79500000000002 50.0 28.415000000000006
  endloop
endfacet
facet normal 0.0 0.0 -1.0
  outer loop
    vertex -100.0 111.56249999999999 28.415000000000006
    vertex -123.72499999999985 109.56249999999999 28.415000000000006
    vertex -123.72499999999985 111.56249999999999 28.415000000000006
  endloop
endfacet
facet normal 0.0 0.0 -1.0
  outer loop
    vertex -123.72499999999985 109.56249999999999 28.415000000000006
    vertex -100.0 111.56249999999999 28.415000000000006
    vertex -102.0 109.56249999999999 28.415000000000006
  endloop
endfacet
facet normal 0.0 0.0 -1.0
  outer loop
    vertex -102.0 109.56249999999999 28.415000000000006
    vertex -100.0 111.56249999999999 28.415000000000006
    vertex -102.0 108.56250000000001 28.415000000000006
  endloop
endfacet
facet normal 0.0 0.0 -1.0
  outer loop
    vertex -102.0 108.56250000000001 28.415000000000006
    vertex -100.0 111.56249999999999 28.415000000000006
    vertex -100.0 108.56250000000001 28.415000000000006
  endloop
endfacet
facet normal 0.0 0.0 1.0
  outer loop
    vertex -100.0 50.0 30.415000000000006
    vertex -191.725 55.20026918458479 30.415000000000006
    vertex -191.725 50.0 30.415000000000006
  endloop
endfacet
facet normal 0.0 0.0 1.0
  outer loop
    vertex -191.725 55.20026918458479 30.415000000000006
    vertex -100.0 50.0 30.415000000000006
    vertex -166.725 55.20026918458479 30.415000000000006
  endloop
endfacet
facet normal 0.0 0.0 1.0
  outer loop
    vertex -166.725 55.20026918458479 30.415000000000006
    vertex -100.0 50.0 30.415000000000006
    vertex -166.725 105.2002691845848 30.415000000000006
  endloop
endfacet
facet normal 0.0 0.0 1.0
  outer loop
    vertex -191.725 105.2002691845848 30.415000000000006
    vertex -100.0 111.56249999999999 30.415000000000006
    vertex -191.725 111.56249999999999 30.415000000000006
  endloop
endfacet
facet normal 0.0 0.0 1.0
  outer loop
    vertex -100.0 111.56249999999999 30.415000000000006
    vertex -191.725 105.2002691845848 30.415000000000006
    vertex -166.725 105.2002691845848 30.415000000000006
  endloop
endfacet
facet normal 0.0 0.0 1.0
  outer loop
    vertex -100.0 111.56249999999999 30.415000000000006
    vertex -166.725 105.2002691845848 30.415000000000006
    vertex -100.0 50.0 30.415000000000006
  endloop
endfacet
facet normal -1.0 -8.864709767257538e-16 2.8199664825478947e-15
  outer loop
    vertex -191.725 111.56249999999999 30.415000000000006
    vertex -191.725 105.2002691845848 28.415000000000006
    vertex -191.725 105.2002691845848 30.415000000000006
  endloop
endfacet
facet normal -1.0 -8.864709767257538e-16 2.8199664825478947e-15
  outer loop
    vertex -191.725 105.2002691845848 28.415000000000006
    vertex -191.725 111.56249999999999 30.415000000000006
    vertex -191.725 111.56249999999999 28.415000000000006
  endloop
endfacet
facet normal -1.0 0.0 0.0
  outer loop
    vertex -102.0 108.56250000000001 27.425
    vertex -102.0 52.99999999999999 26.425
    vertex -102.0 52.99999999999999 27.425
  endloop
endfacet
facet normal -1.0 0.0 0.0
  outer loop
    vertex -102.0 52.99999999999999 26.425
    vertex -102.0 108.56250000000001 27.425
    vertex -102.0 108.56250000000001 26.425
  endloop
endfacet
facet normal -1.0 0.0 0.0
  outer loop
    vertex -166.725 105.2002691845848 30.415000000000006
    vertex -166.725 55.20026918458479 28.415
    vertex -166.725 55.20026918458479 30.415000000000006
  endloop
endfacet
facet normal -1.0 0.0 0.0
  outer loop
    vertex -166.725 55.20026918458479 28.415
    vertex -166.725 105.2002691845848 30.415000000000006
    vertex -166.725 105.2002691845848 28.415
  endloop
endfacet
facet normal -1.0 1.2929010874815444e-15 -5.639932965095805e-15
  outer loop
    vertex -189.725 109.56249999999999 28.415000000000006
    vertex -189.725 105.2002691845848 27.415000000000006
    vertex -189.72500000000002 105.2002691845848 28.415
  endloop
endfacet
facet normal -1.0 1.2929010874815444e-15 -5.639932965095805e-15
  outer loop
    vertex -189.725 105.2002691845848 27.415000000000006
    vertex -189.725 109.56249999999999 28.415000000000006
    vertex -189.725 109.56249999999999 27.415000000000006
  endloop
endfacet
facet normal -1.0 0.0 -1.1279865930194409e-14
  outer loop
    vertex -166.725 105.2002691845848 28.415
    vertex -166.725 55.20026918458479 27.41500000000025
    vertex -166.725 55.20026918458479 28.415
  endloop
endfacet
facet normal -1.0 0.0 -1.1279865930194409e-14
  outer loop
    vertex -166.725 55.20026918458479 27.41500000000025
    vertex -166.725 105.2002691845848 28.415
    vertex -166.725 105.2002691845848 27.41500000000025
  endloop
endfacet
facet normal 0.0 1.0 0.0
  outer loop
    vertex -189.72500000000002 55.20026918458479 28.415
    vertex -166.725 55.20026918458479 27.41500000000025
    vertex -189.725 55.20026918458479 27.415000000000006
  endloop
endfacet
facet normal 0.0 1.0 0.0
  outer loop
    vertex -166.725 55.20026918458479 27.41500000000025
    vertex -189.72500000000002 55.20026918458479 28.415
    vertex -166.725 55.20026918458479 28.415
  endloop
endfacet
facet normal 0.0 -1.0 0.0
  outer loop
    vertex -166.725 105.2002691845848 27.41500000000025
    vertex -189.72500000000002 105.2002691845848 28.415
    vertex -189.725 105.2002691845848 27.415000000000006
  endloop
endfacet
facet normal 0.0 -1.0 0.0
  outer loop
    vertex -189.72500000000002 105.2002691845848 28.415
    vertex -166.725 105.2002691845848 27.41500000000025
    vertex -166.725 105.2002691845848 28.415
  endloop
endfacet
facet normal 0.0 1.0 0.0
  outer loop
    vertex -123.72499999999985 109.56249999999999 28.415000000000006
    vertex -102.0 109.56249999999999 27.415000000000006
    vertex -123.72499999999985 109.56249999999999 27.415000000000006
  endloop
endfacet
facet normal 0.0 1.0 0.0
  outer loop
    vertex -102.0 109.56249999999999 27.415000000000006
    vertex -123.72499999999985 109.56249999999999 28.415000000000006
    vertex -102.0 109.56249999999999 28.415000000000006
  endloop
endfacet
facet normal -1.0 -1.7623308040031431e-15 -5.639932965095805e-15
  outer loop
    vertex -189.72500000000002 55.20026918458479 28.415
    vertex -189.725 51.99999999999999 27.415000000000006
    vertex -189.725 51.99999999999999 28.415000000000006
  endloop
endfacet
facet normal -1.0 -1.7623308040031431e-15 -5.639932965095805e-15
  outer loop
    vertex -189.725 51.99999999999999 27.415000000000006
    vertex -189.72500000000002 55.20026918458479 28.415
    vertex -189.725 55.20026918458479 27.415000000000006
  endloop
endfacet
facet normal 1.0 0.0 0.0
  outer loop
    vertex -102.0 52.99999999999999 27.425
    vertex -102.0 51.99999999999999 28.415000000000006
    vertex -102.0 51.99999999999999 27.415000000000006
  endloop
endfacet
facet normal 1.0 0.0 0.0
  outer loop
    vertex -102.0 51.99999999999999 28.415000000000006
    vertex -102.0 52.99999999999999 27.425
    vertex -102.0 52.99999999999999 28.415000000000006
  endloop
endfacet
facet normal 1.6808336969496568e-15 4.6656308107268866e-14 -1.0
  outer loop
    vertex -166.725 55.20026918458479 27.41500000000025
    vertex -189.725 51.99999999999999 27.415000000000006
    vertex -189.725 55.20026918458479 27.415000000000006
  endloop
endfacet
facet normal 1.6808336969496568e-15 4.6656308107268866e-14 -1.0
  outer loop
    vertex -189.725 51.99999999999999 27.415000000000006
    vertex -166.725 55.20026918458479 27.41500000000025
    vertex -188.795 51.99999999999999 27.415000000000006
  endloop
endfacet
facet normal 1.6808336969496568e-15 4.6656308107268866e-14 -1.0
  outer loop
    vertex -188.795 51.99999999999999 27.415000000000006
    vertex -166.725 55.20026918458479 27.41500000000025
    vertex -131.92000000000007 51.99999999999997 27.415000000000006
  endloop
endfacet
facet normal 1.6808336969496568e-15 4.6656308107268866e-14 -1.0
  outer loop
    vertex -131.92000000000007 51.99999999999997 27.415000000000006
    vertex -166.725 55.20026918458479 27.41500000000025
    vertex -131.92000000000007 55.20026918458479 27.41500000000025
  endloop
endfacet
facet normal 0.0 -1.0 0.0
  outer loop
    vertex -188.795 51.99999999999999 28.415000000000006
    vertex -189.725 51.99999999999999 27.415000000000006
    vertex -188.795 51.99999999999999 27.415000000000006
  endloop
endfacet
facet normal 0.0 -1.0 0.0
  outer loop
    vertex -189.725 51.99999999999999 27.415000000000006
    vertex -188.795 51.99999999999999 28.415000000000006
    vertex -189.725 51.99999999999999 28.415000000000006
  endloop
endfacet
facet normal 2.465651348296082e-32 1.0 3.524958103184861e-16
  outer loop
    vertex -191.725 55.20026918458479 28.415000000000006
    vertex -166.725 55.20026918458479 28.415
    vertex -189.72500000000002 55.20026918458479 28.415
  endloop
endfacet
facet normal 2.465651348296082e-32 1.0 3.524958103184861e-16
  outer loop
    vertex -166.725 55.20026918458479 28.415
    vertex -191.725 55.20026918458479 28.415000000000006
    vertex -166.725 55.20026918458479 30.415000000000006
  endloop
endfacet
facet normal 2.465651348296082e-32 1.0 3.524958103184861e-16
  outer loop
    vertex -166.725 55.20026918458479 30.415000000000006
    vertex -191.725 55.20026918458479 28.415000000000006
    vertex -191.725 55.20026918458479 30.415000000000006
  endloop
endfacet
facet normal 0.0 -1.0 0.0
  outer loop
    vertex -166.725 105.2002691845848 30.415000000000006
    vertex -189.72500000000002 105.2002691845848 28.415
    vertex -166.725 105.2002691845848 28.415
  endloop
endfacet
facet normal 0.0 -1.0 0.0
  outer loop
    vertex -189.72500000000002 105.2002691845848 28.415
    vertex -166.725 105.2002691845848 30.415000000000006
    vertex -191.725 105.2002691845848 28.415000000000006
  endloop
endfacet
facet normal 0.0 -1.0 0.0
  outer loop
    vertex -191.725 105.2002691845848 28.415000000000006
    vertex -166.725 105.2002691845848 30.415000000000006
    vertex -191.725 105.2002691845848 30.415000000000006
  endloop
endfacet
facet normal -4.639903356789594e-16 -6.311956830715501e-16 -1.0
  outer loop
    vertex -189.72500000000002 55.20026918458479 28.415
    vertex -191.725 50.0 28.415000000000006
    vertex -191.725 55.20026918458479 28.415000000000006
  endloop
endfacet
facet normal -4.639903356789594e-16 -6.311956830715501e-16 -1.0
  outer loop
    vertex -191.725 50.0 28.415000000000006
    vertex -189.72500000000002 55.20026918458479 28.415
    vertex -189.725 51.99999999999999 28.415000000000006
  endloop
endfacet
facet normal -4.639903356789594e-16 -6.311956830715501e-16 -1.0
  outer loop
    vertex -191.725 50.0 28.415000000000006
    vertex -189.725 51.99999999999999 28.415000000000006
    vertex -188.79500000000002 50.0 28.415000000000006
  endloop
endfacet
facet normal -4.639903356789594e-16 -6.311956830715501e-16 -1.0
  outer loop
    vertex -188.79500000000002 50.0 28.415000000000006
    vertex -189.725 51.99999999999999 28.415000000000006
    vertex -188.795 51.99999999999999 28.415000000000006
  endloop
endfacet
facet normal 0.0 0.0 -1.0
  outer loop
    vertex -100.0 52.99999999999999 28.415000000000006
    vertex -102.0 51.99999999999999 28.415000000000006
    vertex -102.0 52.99999999999999 28.415000000000006
  endloop
endfacet
facet normal 0.0 0.0 -1.0
  outer loop
    vertex -129.92000000000007 51.999999999999964 28.415000000000006
    vertex -100.0 50.0 28.415000000000006
    vertex -129.9200000000001 49.999999999999964 28.415000000000006
  endloop
endfacet
facet normal 0.0 0.0 -1.0
  outer loop
    vertex -100.0 50.0 28.415000000000006
    vertex -129.92000000000007 51.999999999999964 28.415000000000006
    vertex -102.0 51.99999999999999 28.415000000000006
  endloop
endfacet
facet normal 0.0 0.0 -1.0
  outer loop
    vertex -100.0 50.0 28.415000000000006
    vertex -102.0 51.99999999999999 28.415000000000006
    vertex -100.0 52.99999999999999 28.415000000000006
  endloop
endfacet
facet normal -1.0 5.639932965095806e-15 0.0
  outer loop
    vertex -188.795 51.99999999999999 28.415000000000006
    vertex -188.79500000000002 50.0 17.41500000000001
    vertex -188.79500000000002 50.0 28.415000000000006
  endloop
endfacet
facet normal -1.0 5.639932965095806e-15 0.0
  outer loop
    vertex -188.79500000000002 50.0 17.41500000000001
    vertex -188.795 51.99999999999999 28.415000000000006
    vertex -188.795 51.99999999999999 17.41500000000001
  endloop
endfacet
facet normal -1.0 5.639932965095806e-15 0.0
  outer loop
    vertex -188.795 51.99999999999999 17.41500000000001
    vertex -188.795 51.99999999999999 28.415000000000006
    vertex -188.795 51.99999999999999 27.415000000000006
  endloop
endfacet
facet normal -1.0 5.639932965095806e-15 0.0
  outer loop
    vertex -188.795 51.99999999999999 17.41500000000001
    vertex -188.795 51.99999999999999 27.415000000000006
    vertex -188.795 51.99999999999999 22.415000000000006
  endloop
endfacet
facet normal 0.0 -1.0 0.0
  outer loop
    vertex -102.0 51.99999999999999 28.415000000000006
    vertex -129.92000000000007 51.999999999999964 27.415000000000006
    vertex -102.0 51.99999999999999 27.415000000000006
  endloop
endfacet
facet normal 0.0 -1.0 0.0
  outer loop
    vertex -129.92000000000007 51.999999999999964 27.415000000000006
    vertex -102.0 51.99999999999999 28.415000000000006
    vertex -129.92000000000007 51.999999999999964 28.415000000000006
  endloop
endfacet
facet normal -4.975646920835249e-16 5.367285650141034e-16 -1.0
  outer loop
    vertex -191.725 111.56249999999999 28.415000000000006
    vertex -189.725 109.56249999999999 28.415000000000006
    vertex -191.725 105.2002691845848 28.415000000000006
  endloop
endfacet
facet normal -4.975646920835249e-16 5.367285650141034e-16 -1.0
  outer loop
    vertex -189.725 109.56249999999999 28.415000000000006
    vertex -191.725 111.56249999999999 28.415000000000006
    vertex -188.72499999999985 111.56249999999999 28.415000000000006
  endloop
endfacet
facet normal -4.975646920835249e-16 5.367285650141034e-16 -1.0
  outer loop
    vertex -191.725 105.2002691845848 28.415000000000006
    vertex -189.725 109.56249999999999 28.415000000000006
    vertex -189.72500000000002 105.2002691845848 28.415
  endloop
endfacet
facet normal -4.975646920835249e-16 5.367285650141034e-16 -1.0
  outer loop
    vertex -189.725 109.56249999999999 28.415000000000006
    vertex -188.72499999999985 111.56249999999999 28.415000000000006
    vertex -188.72499999999985 109.56249999999999 28.415000000000006
  endloop
endfacet
facet normal -1.0 0.0 0.0
  outer loop
    vertex -188.72499999999985 111.56249999999999 28.415000000000006
    vertex -188.72499999999985 109.56249999999999 27.415000000000006
    vertex -188.72499999999985 109.56249999999999 28.415000000000006
  endloop
endfacet
facet normal -1.0 0.0 0.0
  outer loop
    vertex -188.72499999999985 109.56249999999999 27.415000000000006
    vertex -188.72499999999985 111.56249999999999 28.415000000000006
    vertex -188.72499999999985 109.56249999999999 25.415000000000006
  endloop
endfacet
facet normal -1.0 0.0 0.0
  outer loop
    vertex -188.72499999999985 109.56249999999999 25.415000000000006
    vertex -188.72499999999985 111.56249999999999 28.415000000000006
    vertex -188.72499999999985 111.56249999999999 25.415000000000006
  endloop
endfacet
facet normal -1.0 0.0 0.0
  outer loop
    vertex -188.72499999999985 109.56249999999999 25.415000000000006
    vertex -188.72499999999985 107.56249999999999 27.415000000000006
    vertex -188.72499999999985 109.56249999999999 27.415000000000006
  endloop
endfacet
facet normal 0.0 1.0 0.0
  outer loop
    vertex -189.725 109.56249999999999 28.415000000000006
    vertex -188.72499999999985 109.56249999999999 27.415000000000006
    vertex -189.725 109.56249999999999 27.415000000000006
  endloop
endfacet
facet normal 0.0 1.0 0.0
  outer loop
    vertex -188.72499999999985 109.56249999999999 27.415000000000006
    vertex -189.725 109.56249999999999 28.415000000000006
    vertex -188.72499999999985 109.56249999999999 28.415000000000006
  endloop
endfacet
facet normal 0.0 1.0 0.0
  outer loop
    vertex -188.795 51.99999999999999 27.415000000000006
    vertex -188.795 51.99999999999999 22.415000000000006
    vertex -189.725 51.99999999999999 27.415000000000006
  endloop
endfacet
facet normal 0.0 1.0 0.0
  outer loop
    vertex -188.795 51.99999999999999 27.415000000000006
    vertex -131.92000000000007 51.99999999999997 22.415000000000006
    vertex -188.795 51.99999999999999 22.415000000000006
  endloop
endfacet
facet normal 0.0 1.0 0.0
  outer loop
    vertex -131.92000000000007 51.99999999999997 22.415000000000006
    vertex -188.795 51.99999999999999 27.415000000000006
    vertex -131.92000000000007 51.99999999999997 27.415000000000006
  endloop
endfacet
facet normal 0.9831382712879907 3.248987093427206e-17 0.1828637184595708
  outer loop
    vertex -189.725 55.20026918458479 27.415000000000006
    vertex -189.725 51.99999999999999 27.415000000000006
    vertex -188.795 51.99999999999999 22.415000000000006
  endloop
endfacet
facet normal 5.6846027380660054e-05 1.4851632033877587e-05 -0.9999999982739791
  outer loop
    vertex -102.0 109.56249999999999 27.415000000000006
    vertex -123.72499999999984 107.56249999999999 27.415000000000006
    vertex -123.72499999999985 109.56249999999999 27.415000000000006
  endloop
endfacet
facet normal 5.6846027380660054e-05 1.4851632033877587e-05 -0.9999999982739791
  outer loop
    vertex -188.72499999999985 109.56249999999999 27.415000000000006
    vertex -189.725 105.2002691845848 27.415000000000006
    vertex -189.725 109.56249999999999 27.415000000000006
  endloop
endfacet
facet normal 5.6846027380660054e-05 1.4851632033877587e-05 -0.9999999982739791
  outer loop
    vertex -189.725 105.2002691845848 27.415000000000006
    vertex -188.72499999999985 109.56249999999999 27.415000000000006
    vertex -188.72499999999985 107.56249999999999 27.415000000000006
  endloop
endfacet
facet normal 5.6846027380660054e-05 1.4851632033877587e-05 -0.9999999982739791
  outer loop
    vertex -189.725 105.2002691845848 27.415000000000006
    vertex -188.72499999999985 107.56249999999999 27.415000000000006
    vertex -166.725 105.2002691845848 27.41500000000025
  endloop
endfacet
facet normal 5.6846027380660054e-05 1.4851632033877587e-05 -0.9999999982739791
  outer loop
    vertex -166.725 105.2002691845848 27.41500000000025
    vertex -188.72499999999985 107.56249999999999 27.415000000000006
    vertex -123.72499999999984 107.56249999999999 27.415000000000006
  endloop
endfacet
facet normal 5.6846027380660054e-05 1.4851632033877587e-05 -0.9999999982739791
  outer loop
    vertex -166.725 105.2002691845848 27.41500000000025
    vertex -123.72499999999984 107.56249999999999 27.415000000000006
    vertex -166.725 55.20026918458479 27.41500000000025
  endloop
endfacet
facet normal 5.6846027380660054e-05 1.4851632033877587e-05 -0.9999999982739791
  outer loop
    vertex -166.725 55.20026918458479 27.41500000000025
    vertex -123.72499999999984 107.56249999999999 27.415000000000006
    vertex -131.92000000000007 55.20026918458479 27.41500000000025
  endloop
endfacet
facet normal 5.6846027380660054e-05 1.4851632033877587e-05 -0.9999999982739791
  outer loop
    vertex -131.92000000000007 55.20026918458479 27.41500000000025
    vertex -123.72499999999984 107.56249999999999 27.415000000000006
    vertex -131.92000000000007 51.99999999999997 27.415000000000006
  endloop
endfacet
facet normal 5.6846027380660054e-05 1.4851632033877587e-05 -0.9999999982739791
  outer loop
    vertex -131.92000000000007 51.99999999999997 27.415000000000006
    vertex -123.72499999999984 107.56249999999999 27.415000000000006
    vertex -129.92000000000007 51.999999999999964 27.415000000000006
  endloop
endfacet
facet normal 5.6846027380660054e-05 1.4851632033877587e-05 -0.9999999982739791
  outer loop
    vertex -129.92000000000007 51.999999999999964 27.415000000000006
    vertex -123.72499999999984 107.56249999999999 27.415000000000006
    vertex -102.0 51.99999999999999 27.415000000000006
  endloop
endfacet
facet normal 5.6846027380660054e-05 1.4851632033877587e-05 -0.9999999982739791
  outer loop
    vertex -102.0 51.99999999999999 27.415000000000006
    vertex -123.72499999999984 107.56249999999999 27.415000000000006
    vertex -102.0 109.56249999999999 27.415000000000006
  endloop
endfacet
facet normal 5.6846027380660054e-05 1.4851632033877587e-05 -0.9999999982739791
  outer loop
    vertex -102.0 51.99999999999999 27.415000000000006
    vertex -102.0 109.56249999999999 27.415000000000006
    vertex -102.0 108.56250000000001 27.425
  endloop
endfacet
facet normal 5.6846027380660054e-05 1.4851632033877587e-05 -0.9999999982739791
  outer loop
    vertex -102.0 51.99999999999999 27.415000000000006
    vertex -102.0 108.56250000000001 27.425
    vertex -102.0 52.99999999999999 27.425
  endloop
endfacet
facet normal -1.2645496220366516e-15 -0.8422508124481201 0.5390858641538303
  outer loop
    vertex -131.92000000000007 55.20026918458479 27.41500000000025
    vertex -188.795 51.99999999999999 22.415000000000006
    vertex -131.92000000000007 51.99999999999997 22.415000000000006
  endloop
endfacet
facet normal -1.2645496220366516e-15 -0.8422508124481201 0.5390858641538303
  outer loop
    vertex -188.795 51.99999999999999 22.415000000000006
    vertex -131.92000000000007 55.20026918458479 27.41500000000025
    vertex -189.725 55.20026918458479 27.415000000000006
  endloop
endfacet
facet normal -1.2645496220366516e-15 -0.8422508124481201 0.5390858641538303
  outer loop
    vertex -189.725 55.20026918458479 27.415000000000006
    vertex -131.92000000000007 55.20026918458479 27.41500000000025
    vertex -166.725 55.20026918458479 27.41500000000025
  endloop
endfacet
facet normal 1.0 0.0 0.0
  outer loop
    vertex -131.92000000000007 55.20026918458479 27.41500000000025
    vertex -131.92000000000007 51.99999999999997 27.415000000000006
    vertex -131.92000000000007 51.99999999999997 22.415000000000006
  endloop
endfacet
facet normal 0.0 0.0 -1.0
  outer loop
    vertex -188.795 51.99999999999999 17.41500000000001
    vertex -129.9200000000001 49.999999999999964 17.41500000000001
    vertex -188.79500000000002 50.0 17.41500000000001
  endloop
endfacet
facet normal 0.0 0.0 -1.0
  outer loop
    vertex -129.9200000000001 49.999999999999964 17.41500000000001
    vertex -188.795 51.99999999999999 17.41500000000001
    vertex -129.92000000000007 51.999999999999964 17.41500000000001
  endloop
endfacet
facet normal 4.896205541127127e-16 1.0 0.0
  outer loop
    vertex -188.795 51.99999999999999 22.415000000000006
    vertex -129.92000000000007 51.999999999999964 17.41500000000001
    vertex -188.795 51.99999999999999 17.41500000000001
  endloop
endfacet
facet normal 4.896205541127127e-16 1.0 0.0
  outer loop
    vertex -129.92000000000007 51.999999999999964 17.41500000000001
    vertex -188.795 51.99999999999999 22.415000000000006
    vertex -129.92000000000007 51.999999999999964 22.415000000000006
  endloop
endfacet
facet normal 4.896205541127127e-16 1.0 0.0
  outer loop
    vertex -129.92000000000007 51.999999999999964 22.415000000000006
    vertex -188.795 51.99999999999999 22.415000000000006
    vertex -131.92000000000007 51.99999999999997 22.415000000000006
  endloop
endfacet
facet normal 1.0 6.941455957040989e-15 -2.169204986575316e-16
  outer loop
    vertex -123.72499999999985 109.56249999999999 25.415000000000006
    vertex -123.72499999999985 109.56249999999999 27.415000000000006
    vertex -123.72499999999984 107.56249999999999 27.415000000000006
  endloop
endfacet
facet normal 1.0 6.941455957040989e-15 -2.169204986575316e-16
  outer loop
    vertex -123.72499999999985 109.56249999999999 27.415000000000006
    vertex -123.72499999999985 109.56249999999999 25.415000000000006
    vertex -123.72499999999985 111.56249999999999 25.415000000000006
  endloop
endfacet
facet normal 1.0 6.941455957040989e-15 -2.169204986575316e-16
  outer loop
    vertex -123.72499999999985 109.56249999999999 27.415000000000006
    vertex -123.72499999999985 111.56249999999999 25.415000000000006
    vertex -123.72499999999985 109.56249999999999 28.415000000000006
  endloop
endfacet
facet normal 1.0 6.941455957040989e-15 -2.169204986575316e-16
  outer loop
    vertex -123.72499999999985 109.56249999999999 28.415000000000006
    vertex -123.72499999999985 111.56249999999999 25.415000000000006
    vertex -123.72499999999985 111.56249999999999 28.415000000000006
  endloop
endfacet
facet normal -2.0124490781955126e-32 -0.7071067811865486 -0.7071067811865466
  outer loop
    vertex -123.72499999999984 107.56249999999999 27.415000000000006
    vertex -188.72499999999985 109.56249999999999 25.415000000000006
    vertex -123.72499999999985 109.56249999999999 25.415000000000006
  endloop
endfacet
facet normal -2.0124490781955126e-32 -0.7071067811865486 -0.7071067811865466
  outer loop
    vertex -188.72499999999985 109.56249999999999 25.415000000000006
    vertex -123.72499999999984 107.56249999999999 27.415000000000006
    vertex -188.72499999999985 107.56249999999999 27.415000000000006
  endloop
endfacet
facet normal 0.0 0.0 -1.0
  outer loop
    vertex -123.72499999999985 109.56249999999999 27.415000000000006
    vertex -188.72499999999985 107.56249999999999 27.415000000000006
    vertex -188.72499999999985 109.56249999999999 27.415000000000006
  endloop
endfacet
facet normal 0.0 0.0 -1.0
  outer loop
    vertex -188.72499999999985 107.56249999999999 27.415000000000006
    vertex -123.72499999999985 109.56249999999999 27.415000000000006
    vertex -123.72499999999984 107.56249999999999 27.415000000000006
  endloop
endfacet
facet normal 0.0 0.0 -1.0
  outer loop
    vertex -123.72499999999985 111.56249999999999 25.415000000000006
    vertex -188.72499999999985 109.56249999999999 25.415000000000006
    vertex -188.72499999999985 111.56249999999999 25.415000000000006
  endloop
endfacet
facet normal 0.0 0.0 -1.0
  outer loop
    vertex -188.72499999999985 109.56249999999999 25.415000000000006
    vertex -123.72499999999985 111.56249999999999 25.415000000000006
    vertex -123.72499999999985 109.56249999999999 25.415000000000006
  endloop
endfacet
facet normal 1.0 -2.819966482547903e-15 0.0
  outer loop
    vertex -129.92000000000007 51.999999999999964 17.41500000000001
    vertex -129.9200000000001 49.999999999999964 28.415000000000006
    vertex -129.9200000000001 49.999999999999964 17.41500000000001
  endloop
endfacet
facet normal 1.0 -2.819966482547903e-15 0.0
  outer loop
    vertex -129.9200000000001 49.999999999999964 28.415000000000006
    vertex -129.92000000000007 51.999999999999964 17.41500000000001
    vertex -129.92000000000007 51.999999999999964 28.415000000000006
  endloop
endfacet
facet normal 1.0 -2.819966482547903e-15 0.0
  outer loop
    vertex -129.92000000000007 51.999999999999964 28.415000000000006
    vertex -129.92000000000007 51.999999999999964 17.41500000000001
    vertex -129.92000000000007 51.999999999999964 22.415000000000006
  endloop
endfacet
facet normal 1.0 -2.819966482547903e-15 0.0
  outer loop
    vertex -129.92000000000007 51.999999999999964 28.415000000000006
    vertex -129.92000000000007 51.999999999999964 22.415000000000006
    vertex -129.92000000000007 51.999999999999964 27.415000000000006
  endloop
endfacet
facet normal 2.8199664825479034e-15 1.0 0.0
  outer loop
    vertex -131.92000000000007 51.99999999999997 27.415000000000006
    vertex -129.92000000000007 51.999999999999964 22.415000000000006
    vertex -131.92000000000007 51.99999999999997 22.415000000000006
  endloop
endfacet
facet normal 2.8199664825479034e-15 1.0 0.0
  outer loop
    vertex -129.92000000000007 51.999999999999964 22.415000000000006
    vertex -131.92000000000007 51.99999999999997 27.415000000000006
    vertex -129.92000000000007 51.999999999999964 27.415000000000006
  endloop
endfacet
endsolid case
