solid mario_t_corner_brace
facet normal 0.8980913058120608 0.42284952490910865 0.12095571796706876
  outer loop
    vertex 39.579505944723344 -243.5914608817322 286.1724939621325
    vertex 38.3801431538041 -234.22850671646464 262.345729308684
    vertex 30.517123617817433 -222.77342857263065 280.68248237055116
  endloop
endfacet
facet normal 0.9978017566510402 0.06081510642655437 -0.02632825961633178
  outer loop
    vertex 39.579505944723344 -243.5914608817322 286.1724939621325
    vertex 39.56054996318027 -253.4652918260143 262.6467311345392
    vertex 38.3801431538041 -234.22850671646464 262.345729308684
  endloop
endfacet
facet normal 0.7663564919297082 -0.6288559995121699 -0.13129302782227448
  outer loop
    vertex 33.12145040877409 -265.2164877588306 281.34661458468844
    vertex 20.92064570045971 -274.08006263434567 252.58458723239025
    vertex 39.56054996318027 -253.4652918260143 262.6467311345392
  endloop
endfacet
facet normal 0.6840148062788889 0.7133834395855881 -0.1523411071125898
  outer loop
    vertex 17.379497143308882 -216.36971967718725 251.68156965745135
    vertex 30.517123617817433 -222.77342857263065 280.68248237055116
    vertex 38.3801431538041 -234.22850671646464 262.345729308684
  endloop
endfacet
facet normal 0.9418389165028358 -0.31014859557902386 0.12941137516124113
  outer loop
    vertex 39.579505944723344 -243.5914608817322 286.1724939621325
    vertex 33.12145040877409 -265.2164877588306 281.34661458468844
    vertex 39.56054996318027 -253.4652918260143 262.6467311345392
  endloop
endfacet
facet normal 0.21811556534413212 0.5564901748975042 -0.801713343656668
  outer loop
    vertex -17.00000000000007 -228.70042672072177 216.23254323340467
    vertex -12.802779336795671 -233.52660175338374 214.02447242581536
    vertex -17.00000000000006 -232.44055825202855 213.6364202344991
  endloop
endfacet
facet normal -0.019699808531804745 0.5187820649495004 0.8546795227630896
  outer loop
    vertex -9.713877846992634 -223.96112822125576 225.4339610959678
    vertex -17.00000000000006 -226.2411904356165 226.64999604795275
    vertex -17.00000000000006 -227.70223084847177 227.53683320991652
  endloop
endfacet
facet normal 0.40068085251959823 0.6458104766212395 -0.6499105190027434
  outer loop
    vertex -12.802779336795671 -233.52660175338374 214.02447242581536
    vertex -17.00000000000006 -222.77834540092292 222.1172643571647
    vertex -9.713877846992634 -223.96112822125576 225.4339610959678
  endloop
endfacet
facet normal 0.40068085251959823 0.6458104766212395 -0.6499105190027434
  outer loop
    vertex -17.00000000000006 -222.77834540092292 222.1172643571647
    vertex -12.802779336795671 -233.52660175338374 214.02447242581536
    vertex -17.00000000000007 -228.70042672072177 216.23254323340467
  endloop
endfacet
facet normal 0.042184755465427805 -0.4903943591857772 0.8704790743522173
  outer loop
    vertex -17.00000000000007 -266.869038313924 228.80341185232547
    vertex -17.00000000000007 -268.7737810957964 227.73035318445895
    vertex -6.847318560023411 -270.67902978838356 226.16499494012825
  endloop
endfacet
facet normal 0.47783621272123694 -0.6119683364298212 -0.6302121143071926
  outer loop
    vertex -17.000000000000068 -270.6030456426094 218.3932961289868
    vertex -6.847318560023411 -270.67902978838356 226.16499494012825
    vertex -17.00000000000007 -273.78628785572675 221.4843878382542
  endloop
endfacet
facet normal 0.47783621272123694 -0.6119683364298212 -0.6302121143071926
  outer loop
    vertex -6.847318560023411 -270.67902978838356 226.16499494012825
    vertex -17.000000000000068 -270.6030456426094 218.3932961289868
    vertex -11.060321477233087 -261.92376314699266 214.46881971224076
  endloop
endfacet
facet normal 0.28600439100995356 -0.5504001084523429 -0.7843858801244926
  outer loop
    vertex -11.060321477233087 -261.92376314699266 214.46881971224076
    vertex -17.000000000000068 -270.6030456426094 218.3932961289868
    vertex -17.000000000000064 -264.2838872012551 213.95917055434356
  endloop
endfacet
facet normal -0.39716999763280236 -0.8814884952316469 -0.25540952557531404
  outer loop
    vertex -8.030436025234406 -273.33791283848194 237.18131695610168
    vertex -17.00000000000007 -266.869038313924 228.80341185232547
    vertex -6.847318560023411 -270.67902978838356 226.16499494012825
  endloop
endfacet
facet normal -0.39716999763280236 -0.8814884952316469 -0.25540952557531404
  outer loop
    vertex -17.00000000000007 -266.869038313924 228.80341185232547
    vertex -8.030436025234406 -273.33791283848194 237.18131695610168
    vertex -17.00000000000007 -268.2889312080245 233.70385261620572
  endloop
endfacet
facet normal -0.5546420217730371 -0.7029914912754491 0.44516872180987505
  outer loop
    vertex -15.970930045914544 -270.0843360018905 260.65893193377957
    vertex -17.000000000000064 -276.24085946858924 249.65467935985708
    vertex -6.353998312987128 -284.6903551142724 249.5756000281894
  endloop
endfacet
facet normal -0.5546420217730371 -0.7029914912754491 0.44516872180987505
  outer loop
    vertex -17.000000000000064 -276.24085946858924 249.65467935985708
    vertex -15.970930045914544 -270.0843360018905 260.65893193377957
    vertex -17.00000000000006 -269.6828924559339 260.01074164388143
  endloop
endfacet
facet normal 0.015013997102739644 -0.7363248967247479 -0.6764615483191105
  outer loop
    vertex -8.030436025234406 -273.33791283848194 237.18131695610168
    vertex 6.277716055018726 -279.7044829430017 244.42886360640583
    vertex -6.353998312987128 -284.6903551142724 249.5756000281894
  endloop
endfacet
facet normal -0.6169156842720708 -0.7783765087225539 0.11638319968109997
  outer loop
    vertex -17.000000000000064 -276.24085946858924 249.65467935985708
    vertex -17.00000000000007 -277.0103362059385 244.5083814577343
    vertex -6.353998312987128 -284.6903551142724 249.5756000281894
  endloop
endfacet
facet normal -0.2835419412569933 -0.7700892936075614 -0.5714599263458664
  outer loop
    vertex -17.00000000000007 -277.0103362059385 244.5083814577343
    vertex -17.000000000000064 -272.61363330317045 238.58346235755258
    vertex -6.353998312987128 -284.6903551142724 249.5756000281894
  endloop
endfacet
facet normal -0.1619484887957625 -0.7384987110771659 -0.654516875805455
  outer loop
    vertex -17.000000000000064 -272.61363330317045 238.58346235755258
    vertex -8.030436025234406 -273.33791283848194 237.18131695610168
    vertex -6.353998312987128 -284.6903551142724 249.5756000281894
  endloop
endfacet
facet normal -0.1619484887957625 -0.7384987110771659 -0.654516875805455
  outer loop
    vertex -8.030436025234406 -273.33791283848194 237.18131695610168
    vertex -17.000000000000064 -272.61363330317045 238.58346235755258
    vertex -17.00000000000007 -268.2889312080245 233.70385261620572
  endloop
endfacet
facet normal -0.3743896266355043 0.7114597848566196 -0.59469099707285
  outer loop
    vertex -17.00000000000006 -214.95009062847907 245.38878288939017
    vertex -10.981808317774409 -209.26995803466824 248.39544918335005
    vertex -17.000000000000075 -218.3110582506838 241.3678824332311
  endloop
endfacet
facet normal -0.7076275233354475 0.7004130356678406 0.09319263750265193
  outer loop
    vertex -10.981808317774409 -209.26995803466824 248.39544918335005
    vertex -17.00000000000006 -214.95009062847907 245.38878288939017
    vertex -17.00000000000007 -215.38060825878142 248.62444794222228
  endloop
endfacet
facet normal -0.6372449200795908 0.6434950159308049 0.42406730162200545
  outer loop
    vertex -17.000000000000068 -221.11771479267773 257.33014028470114
    vertex -10.981808317774409 -209.26995803466824 248.39544918335005
    vertex -17.00000000000007 -215.38060825878142 248.62444794222228
  endloop
endfacet
facet normal -0.2496902658220943 0.6923883736332571 -0.6769439498298105
  outer loop
    vertex -17.000000000000068 -225.4509573821958 234.06508705583374
    vertex -10.981808317774409 -209.26995803466824 248.39544918335005
    vertex -11.23432542310088 -221.12380280941295 236.3643006018762
  endloop
endfacet
facet normal -0.2496902658220943 0.6923883736332571 -0.6769439498298105
  outer loop
    vertex -10.981808317774409 -209.26995803466824 248.39544918335005
    vertex -17.000000000000068 -225.4509573821958 234.06508705583374
    vertex -17.000000000000075 -218.3110582506838 241.3678824332311
  endloop
endfacet
facet normal -0.0913566457617176 0.7103153029266952 -0.6979298916820551
  outer loop
    vertex -10.981808317774409 -209.26995803466824 248.39544918335005
    vertex 2.458544435624543 -212.51048025003612 243.33812450572705
    vertex -11.23432542310088 -221.12380280941295 236.3643006018762
  endloop
endfacet
facet normal -0.6789323502632044 -0.03017890627440545 0.7335803278320392
  outer loop
    vertex -0.8037801081379159 -242.40000000000018 275.8353099716191
    vertex -17.000000000000064 -225.0156691074221 261.5608029454316
    vertex -17.000000000000075 -226.33610090731082 261.5064814403166
  endloop
endfacet
facet normal -0.6789323502632044 -0.03017890627440545 0.7335803278320392
  outer loop
    vertex -17.000000000000064 -225.0156691074221 261.5608029454316
    vertex -0.8037801081379159 -242.40000000000018 275.8353099716191
    vertex 5.357936316841005e-14 -229.1419881278786 277.12463655209297
  endloop
endfacet
facet normal -0.6789323502632044 -0.03017890627440545 0.7335803278320392
  outer loop
    vertex 5.357936316841005e-14 -229.1419881278786 277.12463655209297
    vertex -0.8037801081379159 -242.40000000000018 275.8353099716191
    vertex 6.908917882242349e-14 -242.40000000000032 276.5792125780665
  endloop
endfacet
facet normal 0.5087275602160213 -0.7720614591011292 -0.38094274221632024
  outer loop
    vertex 6.277716055018726 -279.7044829430017 244.42886360640583
    vertex 20.92064570045971 -274.08006263434567 252.58458723239025
    vertex 11.174556575841455 -286.445009858047 264.62942900186135
  endloop
endfacet
facet normal -0.02006856621275173 0.23712103897270756 -0.9712728069531589
  outer loop
    vertex 38.30089714204096 -255.7819178130249 256.6926795787328
    vertex 51.14539035878676 -263.3045998587796 254.59074000982352
    vertex 20.92064570045971 -274.08006263434567 252.58458723239025
  endloop
endfacet
facet normal 0.13309750001362752 -0.5293332946460543 0.8379088964017961
  outer loop
    vertex 39.56054996318027 -253.4652918260143 262.6467311345392
    vertex 20.92064570045971 -274.08006263434567 252.58458723239025
    vertex 51.14539035878676 -263.3045998587796 254.59074000982352
  endloop
endfacet
facet normal 0.7306318717627055 -0.675127924187271 -0.1018791143812713
  outer loop
    vertex 33.12145040877409 -265.2164877588306 281.34661458468844
    vertex 11.174556575841455 -286.445009858047 264.62942900186135
    vertex 20.92064570045971 -274.08006263434567 252.58458723239025
  endloop
endfacet
facet normal 0.060553360621254396 -0.6554371452454876 0.752818330774376
  outer loop
    vertex 14.565402838303052 -257.64361892078045 289.432457242781
    vertex 11.174556575841455 -286.445009858047 264.62942900186135
    vertex 33.12145040877409 -265.2164877588306 281.34661458468844
  endloop
endfacet
facet normal 0.06583886296315151 0.567510538796536 0.8207295732935331
  outer loop
    vertex 17.379497143308882 -216.36971967718725 251.68156965745135
    vertex 38.3801431538041 -234.22850671646464 262.345729308684
    vertex 48.690973084167176 -223.30430842993556 253.96483114422884
  endloop
endfacet
facet normal 0.010904285003385715 -0.2679600185843916 -0.9633683226102141
  outer loop
    vertex 17.379497143308882 -216.36971967718725 251.68156965745135
    vertex 48.690973084167176 -223.30430842993556 253.96483114422884
    vertex 36.85818434742014 -232.27030106420915 256.32477946179137
  endloop
endfacet
facet normal 0.28122003153428693 -0.2882494844994547 0.9153291913566689
  outer loop
    vertex 39.579505944723344 -243.5914608817322 286.1724939621325
    vertex 14.565402838303052 -257.64361892078045 289.432457242781
    vertex 33.12145040877409 -265.2164877588306 281.34661458468844
  endloop
endfacet
facet normal 0.4145600765655216 0.2743825672581536 0.8676716831283673
  outer loop
    vertex 48.690973084167176 -223.30430842993556 253.96483114422884
    vertex 38.3801431538041 -234.22850671646464 262.345729308684
    vertex 57.24660425804724 -242.97976411597566 256.0990242550646
  endloop
endfacet
facet normal -0.08692706521355952 -0.1447122346977369 -0.9856480378218914
  outer loop
    vertex 48.690973084167176 -223.30430842993556 253.96483114422884
    vertex 57.24660425804724 -242.97976411597566 256.0990242550646
    vertex 36.85818434742014 -232.27030106420915 256.32477946179137
  endloop
endfacet
facet normal 0.32869536240390673 0.03493705550612728 0.9437895744744832
  outer loop
    vertex 38.3801431538041 -234.22850671646464 262.345729308684
    vertex 39.56054996318027 -253.4652918260143 262.6467311345392
    vertex 57.24660425804724 -242.97976411597566 256.0990242550646
  endloop
endfacet
facet normal -0.01992768044998365 -0.01686505226715765 -0.9996591706996485
  outer loop
    vertex 36.85818434742014 -232.27030106420915 256.32477946179137
    vertex 57.24660425804724 -242.97976411597566 256.0990242550646
    vertex 38.30089714204096 -255.7819178130249 256.6926795787328
  endloop
endfacet
facet normal -0.10113397923235228 0.10378454329521788 -0.9894446355494749
  outer loop
    vertex 57.24660425804724 -242.97976411597566 256.0990242550646
    vertex 51.14539035878676 -263.3045998587796 254.59074000982352
    vertex 38.30089714204096 -255.7819178130249 256.6926795787328
  endloop
endfacet
facet normal 0.44113911643133247 -0.19739048932018743 0.8754617494100585
  outer loop
    vertex 57.24660425804724 -242.97976411597566 256.0990242550646
    vertex 39.56054996318027 -253.4652918260143 262.6467311345392
    vertex 51.14539035878676 -263.3045998587796 254.59074000982352
  endloop
endfacet
facet normal 0.11665239968084758 0.022694473768773767 0.9929134798707581
  outer loop
    vertex 13.010367899789198 -232.29992510011627 289.0358836787855
    vertex 14.565402838303052 -257.64361892078045 289.432457242781
    vertex 39.579505944723344 -243.5914608817322 286.1724939621325
  endloop
endfacet
facet normal 0.2444181703245855 0.34534694545262046 0.9060878794475328
  outer loop
    vertex 30.517123617817433 -222.77342857263065 280.68248237055116
    vertex 13.010367899789198 -232.29992510011627 289.0358836787855
    vertex 39.579505944723344 -243.5914608817322 286.1724939621325
  endloop
endfacet
facet normal 0.7632362166932849 0.036739783619951026 -0.6450741552932345
  outer loop
    vertex 37.7801099020193 -244.8158038260379 215.15088067209916
    vertex 35.0481716910288 -253.93269826178832 211.39927026670057
    vertex 33.94271986824202 -235.91730154135527 211.1173816060988
  endloop
endfacet
facet normal 0.5643842429561412 0.021719067029953864 -0.8252264588766964
  outer loop
    vertex 33.94271986824202 -235.91730154135527 211.1173816060988
    vertex 35.0481716910288 -253.93269826178832 211.39927026670057
    vertex 21.66157753813666 -246.00342445082882 202.45267591320376
  endloop
endfacet
facet normal 0.41243122072417304 0.2502982404821057 -0.8759288093124522
  outer loop
    vertex 18.65692103670545 -230.1973912443932 205.55453547410073
    vertex 33.94271986824202 -235.91730154135527 211.1173816060988
    vertex 21.66157753813666 -246.00342445082882 202.45267591320376
  endloop
endfacet
facet normal 0.44318592185362543 -0.22951840089853967 -0.8665492151746084
  outer loop
    vertex 21.66157753813666 -246.00342445082882 202.45267591320376
    vertex 35.0481716910288 -253.93269826178832 211.39927026670057
    vertex 20.58672798643374 -261.64800766814074 206.04665704987696
  endloop
endfacet
facet normal -0.2709227237685693 0.13552316782471793 -0.9530132993450683
  outer loop
    vertex 18.65692103670545 -230.1973912443932 205.55453547410073
    vertex 21.66157753813666 -246.00342445082882 202.45267591320376
    vertex -12.802779336795671 -233.52660175338374 214.02447242581536
  endloop
endfacet
facet normal -0.2503285978638381 -0.20039727745445238 -0.9471940267338937
  outer loop
    vertex 21.66157753813666 -246.00342445082882 202.45267591320376
    vertex 20.58672798643374 -261.64800766814074 206.04665704987696
    vertex -11.060321477233087 -261.92376314699266 214.46881971224076
  endloop
endfacet
facet normal -0.2751757508419774 0.47770663158873394 -0.8343109014538284
  outer loop
    vertex 2.87806413473486 -215.31467123576553 219.28027346898125
    vertex 18.65692103670545 -230.1973912443932 205.55453547410073
    vertex -12.802779336795671 -233.52660175338374 214.02447242581536
  endloop
endfacet
facet normal -0.009515429459284536 0.6724549533200961 -0.7400768827341337
  outer loop
    vertex 2.87806413473486 -215.31467123576553 219.28027346898125
    vertex 16.394666940188383 -216.3425732200308 218.17250469455
    vertex 18.65692103670545 -230.1973912443932 205.55453547410073
  endloop
endfacet
facet normal -0.2131681131292684 -0.5335444532154954 -0.8184678808529298
  outer loop
    vertex 20.58672798643374 -261.64800766814074 206.04665704987696
    vertex 6.718887654562221 -277.91054667639446 220.2597607182272
    vertex -11.060321477233087 -261.92376314699266 214.46881971224076
  endloop
endfacet
facet normal 0.07411705374805909 -0.6913438154297957 -0.718714401699785
  outer loop
    vertex 20.58672798643374 -261.64800766814074 206.04665704987696
    vertex 20.010770245452644 -275.2743063235904 219.09463409002072
    vertex 6.718887654562221 -277.91054667639446 220.2597607182272
  endloop
endfacet
facet normal -0.9278907409975005 0.36483209808215594 -0.07691757263513777
  outer loop
    vertex -5.360541790587023 -205.70607460536783 238.63494793416083
    vertex -4.429346696631346 -205.83474831082148 226.7912095989267
    vertex -11.23432542310088 -221.12380280941295 236.3643006018762
  endloop
endfacet
facet normal -0.4821547957423855 -0.091759403323808 0.8712674473686465
  outer loop
    vertex -8.030436025234406 -273.33791283848194 237.18131695610168
    vertex -0.3205203714955545 -287.84407020339114 239.92019635541968
    vertex 6.277716055018726 -279.7044829430017 244.42886360640583
  endloop
endfacet
facet normal -0.9354358479217736 0.2880572960559606 -0.2048969707238279
  outer loop
    vertex -11.23432542310088 -221.12380280941295 236.3643006018762
    vertex -4.429346696631346 -205.83474831082148 226.7912095989267
    vertex -9.713877846992634 -223.96112822125576 225.4339610959678
  endloop
endfacet
facet normal 0.726689703640796 0.5689307290543102 -0.3850193503710992
  outer loop
    vertex 2.458544435624543 -212.51048025003612 243.33812450572705
    vertex -2.5496546788825243 -212.97666909206353 233.19672282214094
    vertex -5.360541790587023 -205.70607460536783 238.63494793416083
  endloop
endfacet
facet normal -0.4798645049409699 0.05384973840616806 0.8756884506326122
  outer loop
    vertex -5.360541790587023 -205.70607460536783 238.63494793416083
    vertex -11.23432542310088 -221.12380280941295 236.3643006018762
    vertex 2.458544435624543 -212.51048025003612 243.33812450572705
  endloop
endfacet
facet normal 0.9470903106459274 0.31300160245886294 0.07106293224167338
  outer loop
    vertex -5.360541790587023 -205.70607460536783 238.63494793416083
    vertex -2.5496546788825243 -212.97666909206353 233.19672282214094
    vertex -4.429346696631346 -205.83474831082148 226.7912095989267
  endloop
endfacet
facet normal 0.8530785989787505 0.4544576807726665 0.2563691095884632
  outer loop
    vertex -2.5496546788825243 -212.97666909206353 233.19672282214094
    vertex 2.87806413473486 -215.31467123576553 219.28027346898125
    vertex -4.429346696631346 -205.83474831082148 226.7912095989267
  endloop
endfacet
facet normal -0.5459716939618329 0.21970826303562868 -0.808482027348978
  outer loop
    vertex -4.429346696631346 -205.83474831082148 226.7912095989267
    vertex 2.87806413473486 -215.31467123576553 219.28027346898125
    vertex -9.713877846992634 -223.96112822125576 225.4339610959678
  endloop
endfacet
facet normal 0.9017258105625883 -0.3385767582220749 0.26880539681537974
  outer loop
    vertex 1.5910585931296322 -280.45807841271574 234.25263744115475
    vertex 0.6106028059234224 -287.97273895150596 228.0764700926108
    vertex 6.718887654562221 -277.91054667639446 220.2597607182272
  endloop
endfacet
facet normal 0.8137857742001421 -0.4714187181077225 -0.33987807509038775
  outer loop
    vertex 6.277716055018726 -279.7044829430017 244.42886360640583
    vertex -0.3205203714955545 -287.84407020339114 239.92019635541968
    vertex 1.5910585931296322 -280.45807841271574 234.25263744115475
  endloop
endfacet
facet normal 0.9781060098829235 -0.19253455417832033 0.07898784006580818
  outer loop
    vertex -0.3205203714955545 -287.84407020339114 239.92019635541968
    vertex 0.6106028059234224 -287.97273895150596 228.0764700926108
    vertex 1.5910585931296322 -280.45807841271574 234.25263744115475
  endloop
endfacet
facet normal -0.8762001027657871 -0.4777199651220533 -0.06369470022700581
  outer loop
    vertex -0.3205203714955545 -287.84407020339114 239.92019635541968
    vertex -8.030436025234406 -273.33791283848194 237.18131695610168
    vertex 0.6106028059234224 -287.97273895150596 228.0764700926108
  endloop
endfacet
facet normal -0.06246150960291328 -0.44809933943599767 -0.8917990478886754
  outer loop
    vertex 54.426135164470786 -243.86787807313544 210.5056699723337
    vertex 55.61857950705249 -255.96351340862492 216.4998054704504
    vertex 44.39257639987785 -244.46741388596652 211.509666142708
  endloop
endfacet
facet normal -0.8928294666444647 -0.4064752801661764 -0.19399327335036484
  outer loop
    vertex -8.030436025234406 -273.33791283848194 237.18131695610168
    vertex -6.847318560023411 -270.67902978838356 226.16499494012825
    vertex 0.6106028059234224 -287.97273895150596 228.0764700926108
  endloop
endfacet
facet normal -0.5134984065998597 -0.3098903796046222 -0.8001795667523062
  outer loop
    vertex -6.847318560023411 -270.67902978838356 226.16499494012825
    vertex 6.718887654562221 -277.91054667639446 220.2597607182272
    vertex 0.6106028059234224 -287.97273895150596 228.0764700926108
  endloop
endfacet
facet normal -0.642721824631132 0.6637814196935607 -0.38249559868373556
  outer loop
    vertex -12.802779336795671 -233.52660175338374 214.02447242581536
    vertex -9.713877846992634 -223.96112822125576 225.4339610959678
    vertex 2.87806413473486 -215.31467123576553 219.28027346898125
  endloop
endfacet
facet normal -0.5560822844169012 -0.748954326355361 -0.3603330542585123
  outer loop
    vertex -11.060321477233087 -261.92376314699266 214.46881971224076
    vertex 6.718887654562221 -277.91054667639446 220.2597607182272
    vertex -6.847318560023411 -270.67902978838356 226.16499494012825
  endloop
endfacet
facet normal -0.11332116969272164 0.3230779081477113 -0.9395631845524666
  outer loop
    vertex 43.91035745649036 -231.85872106028202 215.90344804602745
    vertex 54.426135164470786 -243.86787807313544 210.5056699723337
    vertex 44.39257639987785 -244.46741388596652 211.509666142708
  endloop
endfacet
facet normal -0.501124781546499 0.26761221351397146 -0.8229566552973044
  outer loop
    vertex 43.91035745649036 -231.85872106028202 215.90344804602745
    vertex 44.39257639987785 -244.46741388596652 211.509666142708
    vertex 38.23677592767273 -235.23535957841503 218.26024604219916
  endloop
endfacet
facet normal -0.4299306706472752 -0.383352014489116 -0.8174355334972422
  outer loop
    vertex 44.39257639987785 -244.46741388596652 211.509666142708
    vertex 39.37974117907059 -253.86145610957948 218.5516852170638
    vertex 37.7801099020193 -244.8158038260379 215.15088067209916
  endloop
endfacet
facet normal -0.4730673928728565 0.2922943529448687 -0.8311264964113579
  outer loop
    vertex 38.23677592767273 -235.23535957841503 218.26024604219916
    vertex 44.39257639987785 -244.46741388596652 211.509666142708
    vertex 37.7801099020193 -244.8158038260379 215.15088067209916
  endloop
endfacet
facet normal -0.5420666881074838 0.8328874236150328 -0.11163442671549335
  outer loop
    vertex 38.25347680635587 -234.19405462148126 225.94816846929157
    vertex 43.91035745649036 -231.85872106028202 215.90344804602745
    vertex 38.23677592767273 -235.23535957841503 218.26024604219916
  endloop
endfacet
facet normal 0.9135200860104277 0.31866575564048 0.2528501307841922
  outer loop
    vertex 32.27872839913035 -223.3851068569777 234.7982248861137
    vertex 37.69284696078948 -236.88860613374305 232.25599462780644
    vertex 31.848252187392102 -219.17829964152872 231.05167062792762
  endloop
endfacet
facet normal -0.2733642939179233 0.32533707210821655 0.9052224877469672
  outer loop
    vertex 45.46369995672042 -231.5005293116627 232.66620605075423
    vertex 37.69284696078948 -236.88860613374305 232.25599462780644
    vertex 46.5178667259548 -243.93017467243752 237.45176544880158
  endloop
endfacet
facet normal -0.5564039571645641 0.7808336829830445 0.2841010312736442
  outer loop
    vertex 37.69284696078948 -236.88860613374305 232.25599462780644
    vertex 45.46369995672042 -231.5005293116627 232.66620605075423
    vertex 38.25347680635587 -234.19405462148126 225.94816846929157
  endloop
endfacet
facet normal -0.2471917543584218 0.35535708507846714 0.9014530374133422
  outer loop
    vertex 37.69284696078948 -236.88860613374305 232.25599462780644
    vertex 39.198732544268026 -244.407536611333 235.6329289663962
    vertex 46.5178667259548 -243.93017467243752 237.45176544880158
  endloop
endfacet
facet normal -0.20165684461782796 -0.36744518095866047 0.9079199061641057
  outer loop
    vertex 46.5178667259548 -243.93017467243752 237.45176544880158
    vertex 39.198732544268026 -244.407536611333 235.6329289663962
    vertex 38.610949693238304 -251.85054725446545 232.49010897938032
  endloop
endfacet
facet normal 0.042957120749208384 0.36214043046745725 0.9311331775840568
  outer loop
    vertex 56.590692093595614 -243.32346649156324 236.7510997120332
    vertex 45.46369995672042 -231.5005293116627 232.66620605075423
    vertex 46.5178667259548 -243.93017467243752 237.45176544880158
  endloop
endfacet
facet normal 0.042957120749208384 0.36214043046745725 0.9311331775840568
  outer loop
    vertex 45.46369995672042 -231.5005293116627 232.66620605075423
    vertex 56.590692093595614 -243.32346649156324 236.7510997120332
    vertex 55.53652532440431 -230.8938212731813 231.9655403189049
  endloop
endfacet
facet normal -0.23675319967281952 -0.33496516846763785 0.9120012381340987
  outer loop
    vertex 46.5178667259548 -243.93017467243752 237.45176544880158
    vertex 38.610949693238304 -251.85054725446545 232.49010897938032
    vertex 46.98129376761409 -256.2335350360919 233.05321951019204
  endloop
endfacet
facet normal 0.0853624209820437 -0.3325598931422407 0.939210931877023
  outer loop
    vertex 57.05411875291129 -255.62682707531928 232.3525515323378
    vertex 46.5178667259548 -243.93017467243752 237.45176544880158
    vertex 46.98129376761409 -256.2335350360919 233.05321951019204
  endloop
endfacet
facet normal 0.0853624209820437 -0.3325598931422407 0.939210931877023
  outer loop
    vertex 46.5178667259548 -243.93017467243752 237.45176544880158
    vertex 57.05411875291129 -255.62682707531928 232.3525515323378
    vertex 56.590692093595614 -243.32346649156324 236.7510997120332
  endloop
endfacet
facet normal -0.047766169246515826 0.984939377378441 0.16617104430339832
  outer loop
    vertex 44.612915738930525 -230.14931054889055 224.4126184561456
    vertex 45.46369995672042 -231.5005293116627 232.66620605075423
    vertex 55.53652532440431 -230.8938212731813 231.9655403189049
  endloop
endfacet
facet normal -0.05288517053129143 0.9834260536337522 0.17342536081040988
  outer loop
    vertex 44.612915738930525 -230.14931054889055 224.4126184561456
    vertex 55.53652532440431 -230.8938212731813 231.9655403189049
    vertex 54.72508001103962 -229.53544313839987 224.01527361188113
  endloop
endfacet
facet normal 0.7541865137811125 0.2906676614484547 0.5888251124219978
  outer loop
    vertex 56.590692093595614 -243.32346649156324 236.7510997120332
    vertex 61.33550817276445 -243.1293271871932 230.57794874038686
    vertex 55.53652532440431 -230.8938212731813 231.9655403189049
  endloop
endfacet
facet normal 0.9026671593038189 0.4299341048000837 -0.018672574651731652
  outer loop
    vertex 55.53652532440431 -230.8938212731813 231.9655403189049
    vertex 61.33550817276445 -243.1293271871932 230.57794874038686
    vertex 54.72508001103962 -229.53544313839987 224.01527361188113
  endloop
endfacet
facet normal -0.4938686319107689 0.8485627603370431 0.1898289129288872
  outer loop
    vertex 38.25347680635587 -234.19405462148126 225.94816846929157
    vertex 45.46369995672042 -231.5005293116627 232.66620605075423
    vertex 44.612915738930525 -230.14931054889055 224.4126184561456
  endloop
endfacet
facet normal -0.05644991475489285 0.9797388414685912 -0.19215933399642096
  outer loop
    vertex 43.91035745649036 -231.85872106028202 215.90344804602745
    vertex 44.612915738930525 -230.14931054889055 224.4126184561456
    vertex 54.10098378405143 -231.23050750316736 216.11278076131097
  endloop
endfacet
facet normal -0.0062154835379698535 0.4054232344063918 -0.9141079634090543
  outer loop
    vertex 54.10098378405143 -231.23050750316736 216.11278076131097
    vertex 54.426135164470786 -243.86787807313544 210.5056699723337
    vertex 43.91035745649036 -231.85872106028202 215.90344804602745
  endloop
endfacet
facet normal -0.5532525281579167 0.8243363066484909 -0.11992203145376909
  outer loop
    vertex 38.25347680635587 -234.19405462148126 225.94816846929157
    vertex 44.612915738930525 -230.14931054889055 224.4126184561456
    vertex 43.91035745649036 -231.85872106028202 215.90344804602745
  endloop
endfacet
facet normal 0.8884443339714757 0.4293470458243603 -0.16225837320728795
  outer loop
    vertex 54.72508001103962 -229.53544313839987 224.01527361188113
    vertex 60.33176272684987 -243.38720066894294 218.06189404272402
    vertex 54.10098378405143 -231.23050750316736 216.11278076131097
  endloop
endfacet
facet normal -0.06730897348325701 0.9766194146880465 -0.20416664992845268
  outer loop
    vertex 44.612915738930525 -230.14931054889055 224.4126184561456
    vertex 54.72508001103962 -229.53544313839987 224.01527361188113
    vertex 54.10098378405143 -231.23050750316736 216.11278076131097
  endloop
endfacet
facet normal 0.746086389069589 0.2859899817522029 -0.6013026113218507
  outer loop
    vertex 60.33176272684987 -243.38720066894294 218.06189404272402
    vertex 54.426135164470786 -243.86787807313544 210.5056699723337
    vertex 54.10098378405143 -231.23050750316736 216.11278076131097
  endloop
endfacet
facet normal 0.7757620477088761 -0.21713729178575494 -0.5924902040122516
  outer loop
    vertex 60.33176272684987 -243.38720066894294 218.06189404272402
    vertex 55.61857950705249 -255.96351340862492 216.4998054704504
    vertex 54.426135164470786 -243.86787807313544 210.5056699723337
  endloop
endfacet
facet normal 0.4605291549421522 0.8864303002865258 0.04641357756310773
  outer loop
    vertex 17.379497143308882 -216.36971967718725 251.68156965745135
    vertex 32.693799252002385 -224.08633764668375 247.10449036509604
    vertex 20.00647122125147 -216.7962613329478 233.76227216226357
  endloop
endfacet
facet normal 0.9112147648779264 0.40380974263667185 -0.0813962162521701
  outer loop
    vertex 61.33550817276445 -243.1293271871932 230.57794874038686
    vertex 60.33176272684987 -243.38720066894294 218.06189404272402
    vertex 54.72508001103962 -229.53544313839987 224.01527361188113
  endloop
endfacet
facet normal 0.29137554811010935 0.6526714423592602 0.6993713450608453
  outer loop
    vertex 20.00647122125147 -216.7962613329478 233.76227216226357
    vertex 32.27872839913035 -223.3851068569777 234.7982248861137
    vertex 31.848252187392102 -219.17829964152872 231.05167062792762
  endloop
endfacet
facet normal 0.4704922582683827 0.8817343618540397 0.03437368230735076
  outer loop
    vertex 20.00647122125147 -216.7962613329478 233.76227216226357
    vertex 32.693799252002385 -224.08633764668375 247.10449036509604
    vertex 32.27872839913035 -223.3851068569777 234.7982248861137
  endloop
endfacet
facet normal 0.193590866341318 0.9809468747502512 -0.016303539092251025
  outer loop
    vertex 16.394666940188383 -216.3425732200308 218.17250469455
    vertex 20.00647122125147 -216.7962613329478 233.76227216226357
    vertex 31.848252187392102 -219.17829964152872 231.05167062792762
  endloop
endfacet
facet normal 0.5652895871860206 -0.8216377542477654 0.073205760796177
  outer loop
    vertex 20.92064570045971 -274.08006263434567 252.58458723239025
    vertex 23.510106162732043 -273.89591818796305 234.65573857218806
    vertex 35.1856559615331 -264.69733118632973 247.73994984085328
  endloop
endfacet
facet normal 0.36757628379193036 -0.5900370805452666 0.7188490239092856
  outer loop
    vertex 34.883125575007845 -265.8281644764842 235.46233580768026
    vertex 23.510106162732043 -273.89591818796305 234.65573857218806
    vertex 34.97718703247183 -270.1710331550763 231.84957675687497
  endloop
endfacet
facet normal 0.31200616728216796 -0.9499771417972255 0.013985050613632411
  outer loop
    vertex 20.010770245452644 -275.2743063235904 219.09463409002072
    vertex 34.97718703247183 -270.1710331550763 231.84957675687497
    vertex 23.510106162732043 -273.89591818796305 234.65573857218806
  endloop
endfacet
facet normal 0.5746237914700965 -0.816140353438943 0.06101165269920519
  outer loop
    vertex 23.510106162732043 -273.89591818796305 234.65573857218806
    vertex 34.883125575007845 -265.8281644764842 235.46233580768026
    vertex 35.1856559615331 -264.69733118632973 247.73994984085328
  endloop
endfacet
facet normal 0.06730939957373099 -0.9766190191831896 0.20416840132275274
  outer loop
    vertex 46.31793246742826 -257.93577245481987 224.84740524447062
    vertex 56.43002482403485 -257.321903504424 224.45007259069396
    vertex 57.05411875291129 -255.62682707531928 232.3525515323378
  endloop
endfacet
facet normal 0.9451326576021281 -0.19658403795890825 0.2609194809777707
  outer loop
    vertex 34.883125575007845 -265.8281644764842 235.46233580768026
    vertex 34.97718703247183 -270.1710331550763 231.84957675687497
    vertex 38.610949693238304 -251.85054725446545 232.49010897938032
  endloop
endfacet
facet normal 0.0528858289792772 -0.9834257560100176 -0.17342684771770478
  outer loop
    vertex 46.31793246742826 -257.93577245481987 224.84740524447062
    vertex 55.61857950705249 -255.96351340862492 216.4998054704504
    vertex 56.43002482403485 -257.321903504424 224.45007259069396
  endloop
endfacet
facet normal 0.06402438919209201 -0.984818978716372 -0.1613457676811553
  outer loop
    vertex 45.428022413978645 -256.5917148102988 216.2904443507163
    vertex 55.61857950705249 -255.96351340862492 216.4998054704504
    vertex 46.31793246742826 -257.93577245481987 224.84740524447062
  endloop
endfacet
facet normal 0.931626294424603 -0.3303216924464613 -0.1515256646116042
  outer loop
    vertex 56.43002482403485 -257.321903504424 224.45007259069396
    vertex 55.61857950705249 -255.96351340862492 216.4998054704504
    vertex 60.33176272684987 -243.38720066894294 218.06189404272402
  endloop
endfacet
facet normal 0.04152504123270896 -0.36343840781574244 -0.930692320090254
  outer loop
    vertex 44.39257639987785 -244.46741388596652 211.509666142708
    vertex 55.61857950705249 -255.96351340862492 216.4998054704504
    vertex 45.428022413978645 -256.5917148102988 216.2904443507163
  endloop
endfacet
facet normal -0.43604065678384113 -0.8959490086432713 -0.08452171048113014
  outer loop
    vertex 39.5087665882931 -254.6522169169416 226.2682947548758
    vertex 39.37974117907059 -253.86145610957948 218.5516852170638
    vertex 45.428022413978645 -256.5917148102988 216.2904443507163
  endloop
endfacet
facet normal -0.44816148251591503 -0.8890973412712188 -0.0930440934911352
  outer loop
    vertex 39.5087665882931 -254.6522169169416 226.2682947548758
    vertex 45.428022413978645 -256.5917148102988 216.2904443507163
    vertex 46.31793246742826 -257.93577245481987 224.84740524447062
  endloop
endfacet
facet normal -0.46465020368226295 -0.358882498359768 -0.8095082090930782
  outer loop
    vertex 44.39257639987785 -244.46741388596652 211.509666142708
    vertex 45.428022413978645 -256.5917148102988 216.2904443507163
    vertex 39.37974117907059 -253.86145610957948 218.5516852170638
  endloop
endfacet
facet normal 0.07259040332651193 -0.9777218843415945 0.19695316759172998
  outer loop
    vertex 46.31793246742826 -257.93577245481987 224.84740524447062
    vertex 57.05411875291129 -255.62682707531928 232.3525515323378
    vertex 46.98129376761409 -256.2335350360919 233.05321951019204
  endloop
endfacet
facet normal -0.4573732970443845 -0.8337088090265774 0.3094176609410575
  outer loop
    vertex 38.610949693238304 -251.85054725446545 232.49010897938032
    vertex 39.5087665882931 -254.6522169169416 226.2682947548758
    vertex 46.98129376761409 -256.2335350360919 233.05321951019204
  endloop
endfacet
facet normal -0.3868511500462974 -0.8962016392717818 0.2171838149458384
  outer loop
    vertex 39.5087665882931 -254.6522169169416 226.2682947548758
    vertex 46.31793246742826 -257.93577245481987 224.84740524447062
    vertex 46.98129376761409 -256.2335350360919 233.05321951019204
  endloop
endfacet
facet normal 0.9517732317082421 -0.29866892615068846 -0.07017540848219875
  outer loop
    vertex 61.33550817276445 -243.1293271871932 230.57794874038686
    vertex 56.43002482403485 -257.321903504424 224.45007259069396
    vertex 60.33176272684987 -243.38720066894294 218.06189404272402
  endloop
endfacet
facet normal 0.9457947877400431 -0.3247257553744386 -0.005040166690399167
  outer loop
    vertex 57.05411875291129 -255.62682707531928 232.3525515323378
    vertex 56.43002482403485 -257.321903504424 224.45007259069396
    vertex 61.33550817276445 -243.1293271871932 230.57794874038686
  endloop
endfacet
facet normal 0.7821861761021857 -0.1834110459193327 0.5954369606846865
  outer loop
    vertex 56.590692093595614 -243.32346649156324 236.7510997120332
    vertex 57.05411875291129 -255.62682707531928 232.3525515323378
    vertex 61.33550817276445 -243.1293271871932 230.57794874038686
  endloop
endfacet
facet normal 0.9222050431487631 0.319183217653266 0.21831154792977828
  outer loop
    vertex 37.69284696078948 -236.88860613374305 232.25599462780644
    vertex 38.25347680635587 -234.19405462148126 225.94816846929157
    vertex 31.848252187392102 -219.17829964152872 231.05167062792762
  endloop
endfacet
facet normal 0.9098744699090631 0.4099040233812671 -0.06408697701991456
  outer loop
    vertex 31.848252187392102 -219.17829964152872 231.05167062792762
    vertex 38.25347680635587 -234.19405462148126 225.94816846929157
    vertex 32.0881103845055 -221.8286354275882 217.50535447393293
  endloop
endfacet
facet normal 0.9086682260920389 0.41347387202747055 -0.057977685719234645
  outer loop
    vertex 38.25347680635587 -234.19405462148126 225.94816846929157
    vertex 38.23677592767273 -235.23535957841503 218.26024604219916
    vertex 32.0881103845055 -221.8286354275882 217.50535447393293
  endloop
endfacet
facet normal 0.7930421304722085 0.3350637469434572 -0.5087400758543716
  outer loop
    vertex 38.23677592767273 -235.23535957841503 218.26024604219916
    vertex 33.94271986824202 -235.91730154135527 211.1173816060988
    vertex 32.0881103845055 -221.8286354275882 217.50535447393293
  endloop
endfacet
facet normal 0.8444814503401382 0.12849555741858554 -0.5199422773299974
  outer loop
    vertex 38.23677592767273 -235.23535957841503 218.26024604219916
    vertex 37.7801099020193 -244.8158038260379 215.15088067209916
    vertex 33.94271986824202 -235.91730154135527 211.1173816060988
  endloop
endfacet
facet normal 0.20664663667451455 0.6770314458616961 -0.7063466492208569
  outer loop
    vertex 16.394666940188383 -216.3425732200308 218.17250469455
    vertex 32.0881103845055 -221.8286354275882 217.50535447393293
    vertex 18.65692103670545 -230.1973912443932 205.55453547410073
  endloop
endfacet
facet normal 0.44466533019711824 0.4177732180131519 -0.7922993641494505
  outer loop
    vertex 32.0881103845055 -221.8286354275882 217.50535447393293
    vertex 33.94271986824202 -235.91730154135527 211.1173816060988
    vertex 18.65692103670545 -230.1973912443932 205.55453547410073
  endloop
endfacet
facet normal 0.31810869415598886 0.9314594431851514 -0.17660737358213263
  outer loop
    vertex 16.394666940188383 -216.3425732200308 218.17250469455
    vertex 31.848252187392102 -219.17829964152872 231.05167062792762
    vertex 32.0881103845055 -221.8286354275882 217.50535447393293
  endloop
endfacet
facet normal 0.8290212769897322 -0.251324113799359 -0.49955971827328205
  outer loop
    vertex 39.37974117907059 -253.86145610957948 218.5516852170638
    vertex 34.91722815802199 -267.93583758474375 218.2268255739882
    vertex 35.0481716910288 -253.93269826178832 211.39927026670057
  endloop
endfacet
facet normal 0.28916682743783534 -0.6684149238168647 -0.6852766124189795
  outer loop
    vertex 20.58672798643374 -261.64800766814074 206.04665704987696
    vertex 34.91722815802199 -267.93583758474375 218.2268255739882
    vertex 20.010770245452644 -275.2743063235904 219.09463409002072
  endloop
endfacet
facet normal 0.49389857777411006 -0.3847986784473586 -0.7797398104097788
  outer loop
    vertex 35.0481716910288 -253.93269826178832 211.39927026670057
    vertex 34.91722815802199 -267.93583758474375 218.2268255739882
    vertex 20.58672798643374 -261.64800766814074 206.04665704987696
  endloop
endfacet
facet normal 0.9525001170158862 -0.30092636975916665 -0.04676373668016915
  outer loop
    vertex 39.5087665882931 -254.6522169169416 226.2682947548758
    vertex 34.91722815802199 -267.93583758474375 218.2268255739882
    vertex 39.37974117907059 -253.86145610957948 218.5516852170638
  endloop
endfacet
facet normal 0.8547577380244755 -0.04329816814770387 -0.5172180177858612
  outer loop
    vertex 39.37974117907059 -253.86145610957948 218.5516852170638
    vertex 35.0481716910288 -253.93269826178832 211.39927026670057
    vertex 37.7801099020193 -244.8158038260379 215.15088067209916
  endloop
endfacet
facet normal 0.9532743917882278 -0.29742117378282484 -0.05299603142152625
  outer loop
    vertex 34.97718703247183 -270.1710331550763 231.84957675687497
    vertex 34.91722815802199 -267.93583758474375 218.2268255739882
    vertex 39.5087665882931 -254.6522169169416 226.2682947548758
  endloop
endfacet
facet normal 0.953880099700633 -0.19711234553113488 0.2264055622866298
  outer loop
    vertex 38.610949693238304 -251.85054725446545 232.49010897938032
    vertex 34.97718703247183 -270.1710331550763 231.84957675687497
    vertex 39.5087665882931 -254.6522169169416 226.2682947548758
  endloop
endfacet
facet normal 0.42986306871855073 -0.8906762189226559 -0.14803248021130985
  outer loop
    vertex 20.010770245452644 -275.2743063235904 219.09463409002072
    vertex 34.91722815802199 -267.93583758474375 218.2268255739882
    vertex 34.97718703247183 -270.1710331550763 231.84957675687497
  endloop
endfacet
facet normal 0.3391241025961447 -0.9399193152363591 0.03932586787310718
  outer loop
    vertex 6.277716055018726 -279.7044829430017 244.42886360640583
    vertex 23.510106162732043 -273.89591818796305 234.65573857218806
    vertex 20.92064570045971 -274.08006263434567 252.58458723239025
  endloop
endfacet
facet normal 0.2872861593530309 -0.9553810114825301 -0.0686570137917659
  outer loop
    vertex 1.5910585931296322 -280.45807841271574 234.25263744115475
    vertex 6.718887654562221 -277.91054667639446 220.2597607182272
    vertex 23.510106162732043 -273.89591818796305 234.65573857218806
  endloop
endfacet
facet normal 0.19793237875708333 -0.9793053335360504 0.04223549629645043
  outer loop
    vertex 6.718887654562221 -277.91054667639446 220.2597607182272
    vertex 20.010770245452644 -275.2743063235904 219.09463409002072
    vertex 23.510106162732043 -273.89591818796305 234.65573857218806
  endloop
endfacet
facet normal 0.2872992520316253 -0.9558625653119744 -0.06152963527666878
  outer loop
    vertex 1.5910585931296322 -280.45807841271574 234.25263744115475
    vertex 23.510106162732043 -273.89591818796305 234.65573857218806
    vertex 6.277716055018726 -279.7044829430017 244.42886360640583
  endloop
endfacet
facet normal 0.07673909784542292 0.9969879036304233 0.011235251509617267
  outer loop
    vertex 2.87806413473486 -215.31467123576553 219.28027346898125
    vertex 20.00647122125147 -216.7962613329478 233.76227216226357
    vertex 16.394666940188383 -216.3425732200308 218.17250469455
  endloop
endfacet
facet normal 0.16855285810987314 0.9807061559568756 -0.09902206668859803
  outer loop
    vertex -2.5496546788825243 -212.97666909206353 233.19672282214094
    vertex 20.00647122125147 -216.7962613329478 233.76227216226357
    vertex 2.87806413473486 -215.31467123576553 219.28027346898125
  endloop
endfacet
facet normal 0.16870667609831766 0.9772885739798018 -0.12823845214436666
  outer loop
    vertex -2.5496546788825243 -212.97666909206353 233.19672282214094
    vertex 2.458544435624543 -212.51048025003612 243.33812450572705
    vertex 20.00647122125147 -216.7962613329478 233.76227216226357
  endloop
endfacet
facet normal 0.2437494200650874 0.9697557390264822 0.01265017166424827
  outer loop
    vertex 2.458544435624543 -212.51048025003612 243.33812450572705
    vertex 17.379497143308882 -216.36971967718725 251.68156965745135
    vertex 20.00647122125147 -216.7962613329478 233.76227216226357
  endloop
endfacet
facet normal 0.9822639708877535 0.18596619353896215 -0.02395968189379828
  outer loop
    vertex 39.439765958981376 -244.2142284267853 247.01485079331763
    vertex 39.198732544268026 -244.407536611333 235.6329289663962
    vertex 37.69284696078948 -236.88860613374305 232.25599462780644
  endloop
endfacet
facet normal 0.9541364001871602 -0.2971935391769345 -0.036051769850805784
  outer loop
    vertex 38.30089714204096 -255.7819178130249 256.6926795787328
    vertex 35.1856559615331 -264.69733118632973 247.73994984085328
    vertex 38.610949693238304 -251.85054725446545 232.49010897938032
  endloop
endfacet
facet normal 0.966223196156154 -0.2577066742862231 -7.237486230678153e-05
  outer loop
    vertex 35.1856559615331 -264.69733118632973 247.73994984085328
    vertex 34.883125575007845 -265.8281644764842 235.46233580768026
    vertex 38.610949693238304 -251.85054725446545 232.49010897938032
  endloop
endfacet
facet normal 0.9973236117555097 -0.07034621681662097 -0.01992544138869683
  outer loop
    vertex 39.439765958981376 -244.2142284267853 247.01485079331763
    vertex 38.610949693238304 -251.85054725446545 232.49010897938032
    vertex 39.198732544268026 -244.407536611333 235.6329289663962
  endloop
endfacet
facet normal 0.9796193691982635 0.06309504102776015 0.19069585021520913
  outer loop
    vertex 36.85818434742014 -232.27030106420915 256.32477946179137
    vertex 38.30089714204096 -255.7819178130249 256.6926795787328
    vertex 39.439765958981376 -244.2142284267853 247.01485079331763
  endloop
endfacet
facet normal 0.5919812199327745 -0.6646331867248693 0.45587384477599624
  outer loop
    vertex 20.92064570045971 -274.08006263434567 252.58458723239025
    vertex 35.1856559615331 -264.69733118632973 247.73994984085328
    vertex 38.30089714204096 -255.7819178130249 256.6926795787328
  endloop
endfacet
facet normal 0.9274778616980353 0.3737446991371304 -0.009985786245272662
  outer loop
    vertex 32.693799252002385 -224.08633764668375 247.10449036509604
    vertex 37.69284696078948 -236.88860613374305 232.25599462780644
    vertex 32.27872839913035 -223.3851068569777 234.7982248861137
  endloop
endfacet
facet normal 0.9107288759298241 0.4103048997518834 -0.047146620103627176
  outer loop
    vertex 36.85818434742014 -232.27030106420915 256.32477946179137
    vertex 37.69284696078948 -236.88860613374305 232.25599462780644
    vertex 32.693799252002385 -224.08633764668375 247.10449036509604
  endloop
endfacet
facet normal 0.5054789278023408 0.7458889137360193 0.4337519820283213
  outer loop
    vertex 17.379497143308882 -216.36971967718725 251.68156965745135
    vertex 36.85818434742014 -232.27030106420915 256.32477946179137
    vertex 32.693799252002385 -224.08633764668375 247.10449036509604
  endloop
endfacet
facet normal 0.9761268759969732 0.2170610381784141 -0.0077992090175035425
  outer loop
    vertex 36.85818434742014 -232.27030106420915 256.32477946179137
    vertex 39.439765958981376 -244.2142284267853 247.01485079331763
    vertex 37.69284696078948 -236.88860613374305 232.25599462780644
  endloop
endfacet
facet normal 0.9948783704946055 -0.10101292076946948 -0.003663026019491014
  outer loop
    vertex 38.30089714204096 -255.7819178130249 256.6926795787328
    vertex 38.610949693238304 -251.85054725446545 232.49010897938032
    vertex 39.439765958981376 -244.2142284267853 247.01485079331763
  endloop
endfacet
facet normal -0.6789340426389181 -0.03018212794711622 0.7335786289816243
  outer loop
    vertex 14.565402838303052 -257.64361892078045 289.432457242781
    vertex 7.600000000000045 -250.73512242706198 283.27015124867427
    vertex 7.600000000000041 -260.481373093682 282.8691545824642
  endloop
endfacet
facet normal 0.21424922819068304 -0.9097843399944042 -0.355513323126775
  outer loop
    vertex 7.600000000000049 -286.08718728268644 261.5595374055075
    vertex 7.600000000000065 -281.5701062820778 249.99999999999991
    vertex 11.174556575841455 -286.445009858047 264.62942900186135
  endloop
endfacet
facet normal 0.21424922819068304 -0.9097843399944042 -0.355513323126775
  outer loop
    vertex 7.600000000000065 -281.5701062820778 249.99999999999991
    vertex 6.277716055018726 -279.7044829430017 244.42886360640583
    vertex 11.174556575841455 -286.445009858047 264.62942900186135
  endloop
endfacet
facet normal 0.21424922819068304 -0.9097843399944042 -0.355513323126775
  outer loop
    vertex 6.277716055018726 -279.7044829430017 244.42886360640583
    vertex 7.600000000000065 -281.5701062820778 249.99999999999991
    vertex 6.06292793747798e-14 -283.3598646486145 249.9999999999998
  endloop
endfacet
facet normal 0.21424922819068304 -0.9097843399944042 -0.355513323126775
  outer loop
    vertex 6.277716055018726 -279.7044829430017 244.42886360640583
    vertex 6.06292793747798e-14 -283.3598646486145 249.9999999999998
    vertex -6.353998312987128 -284.6903551142724 249.5756000281894
  endloop
endfacet
facet normal 0.21424922819068304 -0.9097843399944042 -0.355513323126775
  outer loop
    vertex -6.353998312987128 -284.6903551142724 249.5756000281894
    vertex 6.06292793747798e-14 -283.3598646486145 249.9999999999998
    vertex 5.287437154777308e-14 -285.3264071649151 255.03252471532699
  endloop
endfacet
facet normal -0.006292264806058147 -0.35794406499902 -0.9337218288845922
  outer loop
    vertex -17.00000000000006 -232.44055825202855 213.6364202344991
    vertex -12.802779336795671 -233.52660175338374 214.02447242581536
    vertex -17.00000000000007 -241.05876899140972 216.94022795286142
  endloop
endfacet
facet normal -0.514280593045374 -0.044957673068793697 -0.8564428055913236
  outer loop
    vertex -17.00000000000007 -253.8655698899072 217.61250164597044
    vertex -11.791966958380229 -250.0000000000003 214.28224149321002
    vertex -11.060321477233087 -261.92376314699266 214.46881971224076
  endloop
endfacet
facet normal -0.514280593045374 -0.044957673068793697 -0.8564428055913236
  outer loop
    vertex -11.791966958380229 -250.0000000000003 214.28224149321002
    vertex -17.00000000000007 -253.8655698899072 217.61250164597044
    vertex -17.00000000000007 -250.0000000000003 217.40958438611332
  endloop
endfacet
facet normal -0.5142805930453753 -0.04495767306877417 -0.8564428055913239
  outer loop
    vertex -17.00000000000007 -241.05876899140972 216.94022795286142
    vertex -12.258305109194675 -242.4000000000004 214.16331976966083
    vertex -17.000000000000064 -242.4000000000003 217.01063385130556
  endloop
endfacet
facet normal -0.5142805930453753 -0.04495767306877417 -0.8564428055913239
  outer loop
    vertex -12.258305109194675 -242.4000000000004 214.16331976966083
    vertex -17.00000000000007 -241.05876899140972 216.94022795286142
    vertex -12.802779336795671 -233.52660175338374 214.02447242581536
  endloop
endfacet
facet normal -0.329461170823276 -0.03497966438034213 -0.9435209377642845
  outer loop
    vertex -12.802779336795671 -233.52660175338374 214.02447242581536
    vertex 5.6046833840639464e-14 -242.40000000000032 209.88293192458127
    vertex -12.258305109194675 -242.4000000000004 214.16331976966083
  endloop
endfacet
facet normal -0.329461170823276 -0.03497966438034213 -0.9435209377642845
  outer loop
    vertex -11.060321477233087 -261.92376314699266 214.46881971224076
    vertex 4.3356984669173923e-14 -250.00000000000034 210.1646908539809
    vertex 21.66157753813666 -246.00342445082882 202.45267591320376
  endloop
endfacet
facet normal -0.329461170823276 -0.03497966438034213 -0.9435209377642845
  outer loop
    vertex 4.3356984669173923e-14 -250.00000000000034 210.1646908539809
    vertex -11.060321477233087 -261.92376314699266 214.46881971224076
    vertex -11.791966958380229 -250.0000000000003 214.28224149321002
  endloop
endfacet
facet normal -0.329461170823276 -0.03497966438034213 -0.9435209377642845
  outer loop
    vertex 21.66157753813666 -246.00342445082882 202.45267591320376
    vertex 4.3356984669173923e-14 -250.00000000000034 210.1646908539809
    vertex 5.6046833840639464e-14 -242.40000000000032 209.88293192458127
  endloop
endfacet
facet normal -0.329461170823276 -0.03497966438034213 -0.9435209377642845
  outer loop
    vertex 21.66157753813666 -246.00342445082882 202.45267591320376
    vertex 5.6046833840639464e-14 -242.40000000000032 209.88293192458127
    vertex -12.802779336795671 -233.52660175338374 214.02447242581536
  endloop
endfacet
facet normal -0.6789340426389234 -0.030182127947096488 0.7335786289816202
  outer loop
    vertex 6.626921233987559e-14 -263.5776666196577 275.7078889132184
    vertex -17.00000000000006 -253.31380583756683 260.3965192498216
    vertex -15.970930045914544 -270.0843360018905 260.65893193377957
  endloop
endfacet
facet normal -0.6789340426389234 -0.030182127947096488 0.7335786289816202
  outer loop
    vertex -17.00000000000006 -253.31380583756683 260.3965192498216
    vertex 6.626921233987559e-14 -263.5776666196577 275.7078889132184
    vertex -17.00000000000006 -250.00000000000026 260.53286143296305
  endloop
endfacet
facet normal -0.6789340426389234 -0.030182127947096488 0.7335786289816202
  outer loop
    vertex -17.00000000000006 -250.00000000000026 260.53286143296305
    vertex 6.626921233987559e-14 -263.5776666196577 275.7078889132184
    vertex 6.626921233987559e-14 -250.00000000000045 276.26652415005265
  endloop
endfacet
facet normal -0.6789340426389271 -0.030182127947138995 0.733578628981615
  outer loop
    vertex -0.8037801081379159 -242.40000000000018 275.8353099716191
    vertex -17.000000000000075 -226.33610090731082 261.5064814403166
    vertex -17.00000000000006 -242.4000000000003 260.84555343806755
  endloop
endfacet
facet normal -0.5383941140219277 -0.019854657564969184 0.8424592397021481
  outer loop
    vertex -17.00000000000006 -253.31380583756683 260.3965192498216
    vertex -17.00000000000006 -269.6828924559339 260.01074164388143
    vertex -15.970930045914544 -270.0843360018905 260.65893193377957
  endloop
endfacet
facet normal -0.6789323502632189 -0.030178906274409906 0.7335803278320255
  outer loop
    vertex 14.565402838303052 -257.64361892078045 289.432457242781
    vertex 7.600000000000049 -230.98669545467095 284.0825856938946
    vertex 7.600000000000045 -250.73512242706198 283.27015124867427
  endloop
endfacet
facet normal -0.6789323502632189 -0.030178906274409906 0.7335803278320255
  outer loop
    vertex 7.600000000000049 -230.98669545467095 284.0825856938946
    vertex 14.565402838303052 -257.64361892078045 289.432457242781
    vertex 13.010367899789198 -232.29992510011627 289.0358836787855
  endloop
endfacet
facet normal -0.021406461397979373 0.68109576178659 0.7318813610734745
  outer loop
    vertex 30.517123617817433 -222.77342857263065 280.68248237055116
    vertex 7.600000000000051 -210.63556136729025 268.71657519138967
    vertex 13.010367899789198 -232.29992510011627 289.0358836787855
  endloop
endfacet
facet normal -0.021406461397979373 0.68109576178659 0.7318813610734745
  outer loop
    vertex 7.600000000000051 -210.63556136729025 268.71657519138967
    vertex 30.517123617817433 -222.77342857263065 280.68248237055116
    vertex 7.600000000000051 -205.9650277098516 264.3701321084607
  endloop
endfacet
facet normal -0.5045472813776603 0.5202522585947664 0.6890352881249672
  outer loop
    vertex 7.600000000000051 -210.63556136729025 268.71657519138967
    vertex 7.600000000000049 -230.98669545467095 284.0825856938946
    vertex 13.010367899789198 -232.29992510011627 289.0358836787855
  endloop
endfacet
facet normal 0.4284103786047037 0.8156193080324549 -0.38888261965332693
  outer loop
    vertex 2.458544435624543 -212.51048025003612 243.33812450572705
    vertex 7.600000000000035 -212.03472561146572 249.9999999999998
    vertex 17.379497143308882 -216.36971967718725 251.68156965745135
  endloop
endfacet
facet normal 0.4284103786047037 0.8156193080324549 -0.38888261965332693
  outer loop
    vertex 7.600000000000035 -212.03472561146572 249.9999999999998
    vertex 2.458544435624543 -212.51048025003612 243.33812450572705
    vertex 3.694525159512594 -209.98334460740094 249.99999999999986
  endloop
endfacet
facet normal 0.4284103786047037 0.8156193080324549 -0.38888261965332693
  outer loop
    vertex 7.600000000000054 -206.37681902432024 261.8665572136743
    vertex 17.379497143308882 -216.36971967718725 251.68156965745135
    vertex 7.600000000000035 -212.03472561146572 249.9999999999998
  endloop
endfacet
facet normal 0.642852288078314 0.7558341894940365 -0.12432060852637919
  outer loop
    vertex 17.379497143308882 -216.36971967718725 251.68156965745135
    vertex 7.600000000000051 -205.9650277098516 264.3701321084607
    vertex 30.517123617817433 -222.77342857263065 280.68248237055116
  endloop
endfacet
facet normal 0.642852288078314 0.7558341894940365 -0.12432060852637919
  outer loop
    vertex 7.600000000000051 -205.9650277098516 264.3701321084607
    vertex 17.379497143308882 -216.36971967718725 251.68156965745135
    vertex 7.600000000000054 -206.37681902432024 261.8665572136743
  endloop
endfacet
facet normal -0.4385111874139892 -0.5562653784533111 0.7058872199204118
  outer loop
    vertex 14.565402838303052 -257.64361892078045 289.432457242781
    vertex 7.600000000000051 -284.2906128810242 264.10658825850544
    vertex 11.174556575841455 -286.445009858047 264.62942900186135
  endloop
endfacet
facet normal -0.4385111874139892 -0.5562653784533111 0.7058872199204118
  outer loop
    vertex 7.600000000000051 -284.2906128810242 264.10658825850544
    vertex 14.565402838303052 -257.64361892078045 289.432457242781
    vertex 7.600000000000041 -260.481373093682 282.8691545824642
  endloop
endfacet
facet normal -0.4385111874139587 -0.5562653784533304 0.7058872199204155
  outer loop
    vertex 6.626921233987559e-14 -263.5776666196577 275.7078889132184
    vertex -15.970930045914544 -270.0843360018905 260.65893193377957
    vertex 5.851430451286887e-14 -279.7100679440571 262.9949567693415
  endloop
endfacet
facet normal -0.4996550752997686 -0.7078534514096608 0.49928778981126065
  outer loop
    vertex 5.851430451286887e-14 -279.7100679440571 262.9949567693415
    vertex -6.353998312987128 -284.6903551142724 249.5756000281894
    vertex 5.287437154777308e-14 -285.3264071649151 255.03252471532699
  endloop
endfacet
facet normal -0.4996550752997686 -0.7078534514096608 0.49928778981126065
  outer loop
    vertex -6.353998312987128 -284.6903551142724 249.5756000281894
    vertex 5.851430451286887e-14 -279.7100679440571 262.9949567693415
    vertex -15.970930045914544 -270.0843360018905 260.65893193377957
  endloop
endfacet
facet normal -0.4996550752998091 -0.7078534514095272 0.4992877898114097
  outer loop
    vertex 7.600000000000051 -284.2906128810242 264.10658825850544
    vertex 7.600000000000049 -286.08718728268644 261.5595374055075
    vertex 11.174556575841455 -286.445009858047 264.62942900186135
  endloop
endfacet
facet normal 0.08516502090877681 0.9262481955155509 -0.3671664466121507
  outer loop
    vertex 2.458544435624543 -212.51048025003612 243.33812450572705
    vertex 6.979417044306046e-14 -209.64364698209747 250.00000000000003
    vertex 3.694525159512594 -209.98334460740094 249.99999999999986
  endloop
endfacet
facet normal 0.08516502090877681 0.9262481955155509 -0.3671664466121507
  outer loop
    vertex 6.979417044306046e-14 -209.64364698209747 250.00000000000003
    vertex 2.458544435624543 -212.51048025003612 243.33812450572705
    vertex -10.981808317774409 -209.26995803466824 248.39544918335005
  endloop
endfacet
facet normal 0.08516502090877681 0.9262481955155509 -0.3671664466121507
  outer loop
    vertex 6.979417044306046e-14 -209.64364698209747 250.00000000000003
    vertex -10.981808317774409 -209.26995803466824 248.39544918335005
    vertex 6.979417044306046e-14 -206.48366860211019 257.971655088149
  endloop
endfacet
facet normal -1.0 -7.865516381758184e-17 -3.907617270937399e-16
  outer loop
    vertex 7.600000000000049 -286.08718728268644 261.5595374055075
    vertex 7.600000000000035 -212.03472561146572 249.9999999999998
    vertex 7.600000000000065 -281.5701062820778 249.99999999999991
  endloop
endfacet
facet normal -1.0 -7.865516381758184e-17 -3.907617270937399e-16
  outer loop
    vertex 7.600000000000035 -212.03472561146572 249.9999999999998
    vertex 7.600000000000049 -286.08718728268644 261.5595374055075
    vertex 7.600000000000054 -206.37681902432024 261.8665572136743
  endloop
endfacet
facet normal -1.0 -7.865516381758184e-17 -3.907617270937399e-16
  outer loop
    vertex 7.600000000000054 -206.37681902432024 261.8665572136743
    vertex 7.600000000000049 -286.08718728268644 261.5595374055075
    vertex 7.600000000000051 -284.2906128810242 264.10658825850544
  endloop
endfacet
facet normal -1.0 -7.865516381758184e-17 -3.907617270937399e-16
  outer loop
    vertex 7.600000000000054 -206.37681902432024 261.8665572136743
    vertex 7.600000000000051 -284.2906128810242 264.10658825850544
    vertex 7.600000000000041 -260.481373093682 282.8691545824642
  endloop
endfacet
facet normal -1.0 -7.865516381758184e-17 -3.907617270937399e-16
  outer loop
    vertex 7.600000000000054 -206.37681902432024 261.8665572136743
    vertex 7.600000000000041 -260.481373093682 282.8691545824642
    vertex 7.600000000000051 -205.9650277098516 264.3701321084607
  endloop
endfacet
facet normal -1.0 -7.865516381758184e-17 -3.907617270937399e-16
  outer loop
    vertex 7.600000000000051 -205.9650277098516 264.3701321084607
    vertex 7.600000000000041 -260.481373093682 282.8691545824642
    vertex 7.600000000000051 -210.63556136729025 268.71657519138967
  endloop
endfacet
facet normal -1.0 -7.865516381758184e-17 -3.907617270937399e-16
  outer loop
    vertex 7.600000000000051 -210.63556136729025 268.71657519138967
    vertex 7.600000000000041 -260.481373093682 282.8691545824642
    vertex 7.600000000000049 -230.98669545467095 284.0825856938946
  endloop
endfacet
facet normal -1.0 -7.865516381758184e-17 -3.907617270937399e-16
  outer loop
    vertex 7.600000000000049 -230.98669545467095 284.0825856938946
    vertex 7.600000000000041 -260.481373093682 282.8691545824642
    vertex 7.600000000000045 -250.73512242706198 283.27015124867427
  endloop
endfacet
facet normal 1.0 -3.4119819920868834e-17 2.4709932742692376e-16
  outer loop
    vertex 6.979417044306046e-14 -209.64364698209747 250.00000000000003
    vertex 6.908917882242349e-14 -242.40000000000032 276.5792125780665
    vertex 6.274425423669072e-14 -242.40000000000018 249.99999999999986
  endloop
endfacet
facet normal 1.0 -3.4119819920868834e-17 2.4709932742692376e-16
  outer loop
    vertex 6.908917882242349e-14 -242.40000000000032 276.5792125780665
    vertex 6.979417044306046e-14 -209.64364698209747 250.00000000000003
    vertex 6.979417044306046e-14 -206.48366860211019 257.971655088149
  endloop
endfacet
facet normal 1.0 -3.4119819920868834e-17 2.4709932742692376e-16
  outer loop
    vertex 6.908917882242349e-14 -242.40000000000032 276.5792125780665
    vertex 6.979417044306046e-14 -206.48366860211019 257.971655088149
    vertex 6.203926261605374e-14 -209.78661357965748 262.5104687464631
  endloop
endfacet
facet normal 1.0 -3.4119819920868834e-17 2.4709932742692376e-16
  outer loop
    vertex 6.908917882242349e-14 -242.40000000000032 276.5792125780665
    vertex 6.203926261605374e-14 -209.78661357965748 262.5104687464631
    vertex 5.357936316841005e-14 -229.1419881278786 277.12463655209297
  endloop
endfacet
facet normal 1.0 5.171846388005381e-17 1.3216940769347084e-16
  outer loop
    vertex 5.2169379927136103e-14 -250.0000000000003 249.9999999999998
    vertex 5.287437154777308e-14 -285.3264071649151 255.03252471532699
    vertex 6.06292793747798e-14 -283.3598646486145 249.9999999999998
  endloop
endfacet
facet normal 1.0 5.171846388005381e-17 1.3216940769347084e-16
  outer loop
    vertex 5.287437154777308e-14 -285.3264071649151 255.03252471532699
    vertex 5.2169379927136103e-14 -250.0000000000003 249.9999999999998
    vertex 6.626921233987559e-14 -250.00000000000045 276.26652415005265
  endloop
endfacet
facet normal 1.0 5.171846388005381e-17 1.3216940769347084e-16
  outer loop
    vertex 5.287437154777308e-14 -285.3264071649151 255.03252471532699
    vertex 6.626921233987559e-14 -250.00000000000045 276.26652415005265
    vertex 5.851430451286887e-14 -279.7100679440571 262.9949567693415
  endloop
endfacet
facet normal 1.0 5.171846388005381e-17 1.3216940769347084e-16
  outer loop
    vertex 5.851430451286887e-14 -279.7100679440571 262.9949567693415
    vertex 6.626921233987559e-14 -250.00000000000045 276.26652415005265
    vertex 6.626921233987559e-14 -263.5776666196577 275.7078889132184
  endloop
endfacet
facet normal -2.3618098505224547e-15 -1.149299197334528e-16 1.0
  outer loop
    vertex 7.600000000000065 -281.5701062820778 249.99999999999991
    vertex 5.2169379927136103e-14 -250.0000000000003 249.9999999999998
    vertex 6.06292793747798e-14 -283.3598646486145 249.9999999999998
  endloop
endfacet
facet normal -2.3618098505224547e-15 -1.149299197334528e-16 1.0
  outer loop
    vertex 5.2169379927136103e-14 -250.0000000000003 249.9999999999998
    vertex 7.600000000000065 -281.5701062820778 249.99999999999991
    vertex 7.600000000000035 -212.03472561146572 249.9999999999998
  endloop
endfacet
facet normal -2.3618098505224547e-15 -1.149299197334528e-16 1.0
  outer loop
    vertex 5.2169379927136103e-14 -250.0000000000003 249.9999999999998
    vertex 7.600000000000035 -212.03472561146572 249.9999999999998
    vertex 6.274425423669072e-14 -242.40000000000018 249.99999999999986
  endloop
endfacet
facet normal -2.3618098505224547e-15 -1.149299197334528e-16 1.0
  outer loop
    vertex 6.274425423669072e-14 -242.40000000000018 249.99999999999986
    vertex 7.600000000000035 -212.03472561146572 249.9999999999998
    vertex 6.979417044306046e-14 -209.64364698209747 250.00000000000003
  endloop
endfacet
facet normal -2.3618098505224547e-15 -1.149299197334528e-16 1.0
  outer loop
    vertex 6.979417044306046e-14 -209.64364698209747 250.00000000000003
    vertex 7.600000000000035 -212.03472561146572 249.9999999999998
    vertex 3.694525159512594 -209.98334460740094 249.99999999999986
  endloop
endfacet
facet normal -1.0 6.216990345581469e-16 -5.746495986672646e-17
  outer loop
    vertex 4.3356984669173923e-14 -250.00000000000034 210.1646908539809
    vertex 6.274425423669072e-14 -242.40000000000018 249.99999999999986
    vertex 5.6046833840639464e-14 -242.40000000000032 209.88293192458127
  endloop
endfacet
facet normal -1.0 6.216990345581469e-16 -5.746495986672646e-17
  outer loop
    vertex 6.274425423669072e-14 -242.40000000000018 249.99999999999986
    vertex 4.3356984669173923e-14 -250.00000000000034 210.1646908539809
    vertex 5.2169379927136103e-14 -250.0000000000003 249.9999999999998
  endloop
endfacet
facet normal -0.5013909824043027 0.8179505465861228 -0.28207088843606515
  outer loop
    vertex -17.00000000000006 -227.70223084847177 227.53683320991652
    vertex -11.23432542310088 -221.12380280941295 236.3643006018762
    vertex -9.713877846992634 -223.96112822125576 225.4339610959678
  endloop
endfacet
facet normal -0.5013909824043027 0.8179505465861228 -0.28207088843606515
  outer loop
    vertex -11.23432542310088 -221.12380280941295 236.3643006018762
    vertex -17.00000000000006 -227.70223084847177 227.53683320991652
    vertex -17.000000000000068 -225.4509573821958 234.06508705583374
  endloop
endfacet
facet normal -3.067551388885689e-15 -1.0 9.481718378009858e-16
  outer loop
    vertex 6.274425423669072e-14 -242.40000000000018 249.99999999999986
    vertex -12.258305109194675 -242.4000000000004 214.16331976966083
    vertex 5.6046833840639464e-14 -242.40000000000032 209.88293192458127
  endloop
endfacet
facet normal -3.067551388885689e-15 -1.0 9.481718378009858e-16
  outer loop
    vertex -12.258305109194675 -242.4000000000004 214.16331976966083
    vertex 6.274425423669072e-14 -242.40000000000018 249.99999999999986
    vertex 6.908917882242349e-14 -242.40000000000032 276.5792125780665
  endloop
endfacet
facet normal -3.067551388885689e-15 -1.0 9.481718378009858e-16
  outer loop
    vertex -12.258305109194675 -242.4000000000004 214.16331976966083
    vertex 6.908917882242349e-14 -242.40000000000032 276.5792125780665
    vertex -0.8037801081379159 -242.40000000000018 275.8353099716191
  endloop
endfacet
facet normal -3.067551388885689e-15 -1.0 9.481718378009858e-16
  outer loop
    vertex -12.258305109194675 -242.4000000000004 214.16331976966083
    vertex -0.8037801081379159 -242.40000000000018 275.8353099716191
    vertex -17.00000000000006 -242.4000000000003 260.84555343806755
  endloop
endfacet
facet normal -3.067551388885689e-15 -1.0 9.481718378009858e-16
  outer loop
    vertex -12.258305109194675 -242.4000000000004 214.16331976966083
    vertex -17.00000000000006 -242.4000000000003 260.84555343806755
    vertex -17.000000000000064 -242.4000000000003 217.01063385130556
  endloop
endfacet
facet normal 2.0579638752271396e-15 1.0 8.045094381341697e-17
  outer loop
    vertex -11.791966958380229 -250.0000000000003 214.28224149321002
    vertex 5.2169379927136103e-14 -250.0000000000003 249.9999999999998
    vertex 4.3356984669173923e-14 -250.00000000000034 210.1646908539809
  endloop
endfacet
facet normal 2.0579638752271396e-15 1.0 8.045094381341697e-17
  outer loop
    vertex 5.2169379927136103e-14 -250.0000000000003 249.9999999999998
    vertex -11.791966958380229 -250.0000000000003 214.28224149321002
    vertex 6.626921233987559e-14 -250.00000000000045 276.26652415005265
  endloop
endfacet
facet normal 2.0579638752271396e-15 1.0 8.045094381341697e-17
  outer loop
    vertex 6.626921233987559e-14 -250.00000000000045 276.26652415005265
    vertex -11.791966958380229 -250.0000000000003 214.28224149321002
    vertex -17.00000000000006 -250.00000000000026 260.53286143296305
  endloop
endfacet
facet normal 2.0579638752271396e-15 1.0 8.045094381341697e-17
  outer loop
    vertex -17.00000000000006 -250.00000000000026 260.53286143296305
    vertex -11.791966958380229 -250.0000000000003 214.28224149321002
    vertex -17.00000000000007 -250.0000000000003 217.40958438611332
  endloop
endfacet
facet normal -0.5833629816270176 0.6567278404117552 0.47790812432448554
  outer loop
    vertex -10.981808317774409 -209.26995803466824 248.39544918335005
    vertex 6.203926261605374e-14 -209.78661357965748 262.5104687464631
    vertex 6.979417044306046e-14 -206.48366860211019 257.971655088149
  endloop
endfacet
facet normal -0.5833629816270176 0.6567278404117552 0.47790812432448554
  outer loop
    vertex 6.203926261605374e-14 -209.78661357965748 262.5104687464631
    vertex -10.981808317774409 -209.26995803466824 248.39544918335005
    vertex -17.00000000000006 -223.19730962423088 260.18786074004544
  endloop
endfacet
facet normal -0.5833629816270176 0.6567278404117552 0.47790812432448554
  outer loop
    vertex -17.00000000000006 -223.19730962423088 260.18786074004544
    vertex -10.981808317774409 -209.26995803466824 248.39544918335005
    vertex -17.000000000000068 -221.11771479267773 257.33014028470114
  endloop
endfacet
facet normal -0.5045472813776593 0.5202522585947367 0.6890352881249904
  outer loop
    vertex 6.203926261605374e-14 -209.78661357965748 262.5104687464631
    vertex -17.000000000000064 -225.0156691074221 261.5608029454316
    vertex 5.357936316841005e-14 -229.1419881278786 277.12463655209297
  endloop
endfacet
facet normal -0.5045472813776593 0.5202522585947367 0.6890352881249904
  outer loop
    vertex -17.000000000000064 -225.0156691074221 261.5608029454316
    vertex 6.203926261605374e-14 -209.78661357965748 262.5104687464631
    vertex -17.00000000000006 -223.19730962423088 260.18786074004544
  endloop
endfacet
facet normal -0.050451667980863944 0.33048735019963776 -0.9424610021406566
  outer loop
    vertex -17.00000000000007 -253.8655698899072 217.61250164597044
    vertex -11.060321477233087 -261.92376314699266 214.46881971224076
    vertex -17.000000000000064 -264.2838872012551 213.95917055434356
  endloop
endfacet
facet normal -0.14577529787319202 0.7861535273570028 0.6005932017215347
  outer loop
    vertex -17.00000000000006 -226.2411904356165 226.64999604795275
    vertex -9.713877846992634 -223.96112822125576 225.4339610959678
    vertex -17.00000000000006 -222.77834540092292 222.1172643571647
  endloop
endfacet
facet normal -0.049794525650222785 -0.7789420074521809 0.6251158726521313
  outer loop
    vertex -17.00000000000007 -268.7737810957964 227.73035318445895
    vertex -17.00000000000007 -273.78628785572675 221.4843878382542
    vertex -6.847318560023411 -270.67902978838356 226.16499494012825
  endloop
endfacet
facet normal -1.0 -4.130293990420964e-17 -1.3216940769347084e-16
  outer loop
    vertex -17.00000000000007 -241.05876899140972 216.94022795286142
    vertex -17.00000000000007 -228.70042672072177 216.23254323340467
    vertex -17.00000000000006 -232.44055825202855 213.6364202344991
  endloop
endfacet
facet normal -1.0 -4.130293990420964e-17 -1.3216940769347084e-16
  outer loop
    vertex -17.00000000000007 -228.70042672072177 216.23254323340467
    vertex -17.00000000000007 -241.05876899140972 216.94022795286142
    vertex -17.00000000000006 -222.77834540092292 222.1172643571647
  endloop
endfacet
facet normal -1.0 -4.130293990420964e-17 -1.3216940769347084e-16
  outer loop
    vertex -17.00000000000006 -222.77834540092292 222.1172643571647
    vertex -17.00000000000007 -241.05876899140972 216.94022795286142
    vertex -17.000000000000064 -242.4000000000003 217.01063385130556
  endloop
endfacet
facet normal -1.0 -4.130293990420964e-17 -1.3216940769347084e-16
  outer loop
    vertex -17.00000000000006 -222.77834540092292 222.1172643571647
    vertex -17.000000000000064 -242.4000000000003 217.01063385130556
    vertex -17.00000000000006 -227.70223084847177 227.53683320991652
  endloop
endfacet
facet normal -1.0 -4.130293990420964e-17 -1.3216940769347084e-16
  outer loop
    vertex -17.00000000000006 -227.70223084847177 227.53683320991652
    vertex -17.000000000000064 -242.4000000000003 217.01063385130556
    vertex -17.00000000000006 -242.4000000000003 260.84555343806755
  endloop
endfacet
facet normal -1.0 -4.130293990420964e-17 -1.3216940769347084e-16
  outer loop
    vertex -17.00000000000006 -222.77834540092292 222.1172643571647
    vertex -17.00000000000006 -227.70223084847177 227.53683320991652
    vertex -17.00000000000006 -226.2411904356165 226.64999604795275
  endloop
endfacet
facet normal -1.0 -4.130293990420964e-17 -1.3216940769347084e-16
  outer loop
    vertex -17.00000000000006 -227.70223084847177 227.53683320991652
    vertex -17.00000000000006 -242.4000000000003 260.84555343806755
    vertex -17.000000000000068 -225.4509573821958 234.06508705583374
  endloop
endfacet
facet normal -1.0 -4.130293990420964e-17 -1.3216940769347084e-16
  outer loop
    vertex -17.000000000000068 -225.4509573821958 234.06508705583374
    vertex -17.00000000000006 -242.4000000000003 260.84555343806755
    vertex -17.000000000000075 -218.3110582506838 241.3678824332311
  endloop
endfacet
facet normal -1.0 -4.130293990420964e-17 -1.3216940769347084e-16
  outer loop
    vertex -17.000000000000075 -218.3110582506838 241.3678824332311
    vertex -17.00000000000006 -242.4000000000003 260.84555343806755
    vertex -17.00000000000006 -214.95009062847907 245.38878288939017
  endloop
endfacet
facet normal -1.0 -4.130293990420964e-17 -1.3216940769347084e-16
  outer loop
    vertex -17.00000000000006 -214.95009062847907 245.38878288939017
    vertex -17.00000000000006 -242.4000000000003 260.84555343806755
    vertex -17.00000000000007 -215.38060825878142 248.62444794222228
  endloop
endfacet
facet normal -1.0 -4.130293990420964e-17 -1.3216940769347084e-16
  outer loop
    vertex -17.00000000000007 -215.38060825878142 248.62444794222228
    vertex -17.00000000000006 -242.4000000000003 260.84555343806755
    vertex -17.000000000000068 -221.11771479267773 257.33014028470114
  endloop
endfacet
facet normal -1.0 -4.130293990420964e-17 -1.3216940769347084e-16
  outer loop
    vertex -17.000000000000068 -221.11771479267773 257.33014028470114
    vertex -17.00000000000006 -242.4000000000003 260.84555343806755
    vertex -17.00000000000006 -223.19730962423088 260.18786074004544
  endloop
endfacet
facet normal -1.0 -4.130293990420964e-17 -1.3216940769347084e-16
  outer loop
    vertex -17.00000000000006 -223.19730962423088 260.18786074004544
    vertex -17.00000000000006 -242.4000000000003 260.84555343806755
    vertex -17.000000000000075 -226.33610090731082 261.5064814403166
  endloop
endfacet
facet normal -1.0 -4.130293990420964e-17 -1.3216940769347084e-16
  outer loop
    vertex -17.00000000000006 -223.19730962423088 260.18786074004544
    vertex -17.000000000000075 -226.33610090731082 261.5064814403166
    vertex -17.000000000000064 -225.0156691074221 261.5608029454316
  endloop
endfacet
facet normal -1.0 1.6162019962516815e-17 -2.873247993336323e-17
  outer loop
    vertex -17.000000000000068 -270.6030456426094 218.3932961289868
    vertex -17.00000000000007 -253.8655698899072 217.61250164597044
    vertex -17.000000000000064 -264.2838872012551 213.95917055434356
  endloop
endfacet
facet normal -1.0 1.6162019962516815e-17 -2.873247993336323e-17
  outer loop
    vertex -17.00000000000007 -253.8655698899072 217.61250164597044
    vertex -17.00000000000006 -250.00000000000026 260.53286143296305
    vertex -17.00000000000007 -250.0000000000003 217.40958438611332
  endloop
endfacet
facet normal -1.0 1.6162019962516815e-17 -2.873247993336323e-17
  outer loop
    vertex -17.00000000000006 -250.00000000000026 260.53286143296305
    vertex -17.00000000000007 -253.8655698899072 217.61250164597044
    vertex -17.000000000000068 -270.6030456426094 218.3932961289868
  endloop
endfacet
facet normal -1.0 1.6162019962516815e-17 -2.873247993336323e-17
  outer loop
    vertex -17.00000000000006 -250.00000000000026 260.53286143296305
    vertex -17.000000000000068 -270.6030456426094 218.3932961289868
    vertex -17.00000000000007 -266.869038313924 228.80341185232547
  endloop
endfacet
facet normal -1.0 1.6162019962516815e-17 -2.873247993336323e-17
  outer loop
    vertex -17.00000000000007 -266.869038313924 228.80341185232547
    vertex -17.000000000000068 -270.6030456426094 218.3932961289868
    vertex -17.00000000000007 -273.78628785572675 221.4843878382542
  endloop
endfacet
facet normal -1.0 1.6162019962516815e-17 -2.873247993336323e-17
  outer loop
    vertex -17.00000000000007 -266.869038313924 228.80341185232547
    vertex -17.00000000000007 -273.78628785572675 221.4843878382542
    vertex -17.00000000000007 -268.7737810957964 227.73035318445895
  endloop
endfacet
facet normal -1.0 1.6162019962516815e-17 -2.873247993336323e-17
  outer loop
    vertex -17.00000000000006 -250.00000000000026 260.53286143296305
    vertex -17.00000000000007 -266.869038313924 228.80341185232547
    vertex -17.00000000000007 -268.2889312080245 233.70385261620572
  endloop
endfacet
facet normal -1.0 1.6162019962516815e-17 -2.873247993336323e-17
  outer loop
    vertex -17.00000000000006 -250.00000000000026 260.53286143296305
    vertex -17.00000000000007 -268.2889312080245 233.70385261620572
    vertex -17.000000000000064 -272.61363330317045 238.58346235755258
  endloop
endfacet
facet normal -1.0 1.6162019962516815e-17 -2.873247993336323e-17
  outer loop
    vertex -17.00000000000006 -250.00000000000026 260.53286143296305
    vertex -17.000000000000064 -272.61363330317045 238.58346235755258
    vertex -17.00000000000007 -277.0103362059385 244.5083814577343
  endloop
endfacet
facet normal -1.0 1.6162019962516815e-17 -2.873247993336323e-17
  outer loop
    vertex -17.00000000000006 -250.00000000000026 260.53286143296305
    vertex -17.00000000000007 -277.0103362059385 244.5083814577343
    vertex -17.000000000000064 -276.24085946858924 249.65467935985708
  endloop
endfacet
facet normal -1.0 1.6162019962516815e-17 -2.873247993336323e-17
  outer loop
    vertex -17.00000000000006 -250.00000000000026 260.53286143296305
    vertex -17.000000000000064 -276.24085946858924 249.65467935985708
    vertex -17.00000000000006 -253.31380583756683 260.3965192498216
  endloop
endfacet
facet normal -1.0 1.6162019962516815e-17 -2.873247993336323e-17
  outer loop
    vertex -17.00000000000006 -253.31380583756683 260.3965192498216
    vertex -17.000000000000064 -276.24085946858924 249.65467935985708
    vertex -17.00000000000006 -269.6828924559339 260.01074164388143
  endloop
endfacet
endsolid mario_t_corner_brace
